<ttFont>
<head>
    <!-- Most of this table will be recalculated by the compiler -->
    <tableVersion value="1.0"/>
    <fontRevision value="4.00299"/>
    <checkSumAdjustment value="0x10e08f1"/>
    <magicNumber value="0x5f0f3cf5"/>
    <flags value="00000000 00000011"/>
    <unitsPerEm value="1000"/>
    <created value="Tue Mar  5 22:26:59 2019"/>
    <modified value="Tue Mar  5 22:26:59 2019"/>
    <xMin value="-626"/>
    <yMin value="-627"/>
    <xMax value="2420"/>
    <yMax value="1135"/>
    <macStyle value="00000000 00000000"/>
    <lowestRecPPEM value="3"/>
    <fontDirectionHint value="2"/>
    <indexToLocFormat value="0"/>
    <glyphDataFormat value="0"/>
  </head>
          <CharString index="0">
            rmoveto
            -106 callgsubr
            return
          </CharString>
          <CharString index="1">
            55 callsubr
            -151 -12 callgsubr
            hvcurveto
            177 vlineto
            return
          </CharString>
          <CharString index="2">
            rmoveto
            -105 callgsubr
            return
          </CharString>
          <CharString index="3">
            50 37 37 48 50 -37 37 -50 -48 -37 -37 -50 -48 37 -37 48 hvcurveto
            return
          </CharString>
          <CharString index="4">
            rmoveto
            -49 -22 37 46 hvcurveto
            181 145 -181 vlineto
            -45 -24 -38 -50 vhcurveto
            return
          </CharString>
          <CharString index="5">
            395 -7 rmoveto
            200 163 151 213 213 -161 150 -202 -201 -164 -150 -213 -213 164 -151 201 hvcurveto
            207 vmoveto
            -91 -48 63 94 96 48 62 91 89 49 -62 -96 -94 -49 -63 -89 hvcurveto
            return
          </CharString>
          <CharString index="6">
            -147 117 -79 121 495 callgsubr
            return
          </CharString>
          <CharString index="7">
            -134 73 -101 129 63 47 21 36 30 return
          </CharString>
          <CharString index="8">
            -13 vlineto
            -18 -8 -17 -22 -23 -9 18 19 vhcurveto
            return
          </CharString>
          <CharString index="9">
            -97 callgsubr
            hstemhm
            return
          </CharString>
          <CharString index="10">
            -55 -24 42 52 hvcurveto
            170 161 -171 vlineto
            -51 -26 -42 -56 vhcurveto
            362 105 callgsubr
            return
          </CharString>
          <CharString index="11">
            -89 callsubr
            endchar
          </CharString>
          <CharString index="12">
            -59 -52 41 65 8 1 8 2 7 hvcurveto
            167 -114 rlineto
            -9 -16 -20 -6 -23 hhcurveto
            return
          </CharString>
          <CharString index="13">
            191 -191 -71 callgsubr
            return
          </CharString>
          <CharString index="14">
            rmoveto
            -27 -85 callsubr
            -37 vhcurveto
            return
          </CharString>
          <CharString index="15">
            64 45 -45 -62 -9 -1 -8 -2 -8 hvcurveto
            201 callsubr
            -7 callsubr
            return
          </CharString>
          <CharString index="16">
            571 -93 callgsubr
            return
          </CharString>
          <CharString index="17">
            -72 callgsubr
            hintmask 0010011000010000
            3 callsubr
            hintmask 0010101010000000
            -177 -77 -72 -100 hvcurveto
            hintmask 1000101010000000
            -105 80 -57 97 vhcurveto
            hintmask 0010101000001000
            -16 callsubr
          </CharString>
          <CharString index="18">
            -53 callsubr
            vlineto
            return
          </CharString>
          <CharString index="19">
            311 callsubr
            -60 callsubr
            return
          </CharString>
          <CharString index="20">
            158 131 74 176 150 -99 82 -143 -150 -92 -90 -125 -11 1 -12 1 -11 hvcurveto
            return
          </CharString>
          <CharString index="21">
            hstemhm
            -11 452 -391 -94 callgsubr
            return
          </CharString>
          <CharString index="22">
            -21 15 33 33 26 16 -9 callgsubr
            -26 return
          </CharString>
          <CharString index="23">
            33 -28 -44 19 -60 hhcurveto
            return
          </CharString>
          <CharString index="24">
            134 -104 45 -104 vhcurveto
            -44 hlineto
            -18 -12 7 16 14 13 8 18 hvcurveto
            return
          </CharString>
          <CharString index="25">
            rmoveto
            -139 238 rlineto
            -202 hlineto
            134 -238 rlineto
            return
          </CharString>
          <CharString index="26">
            -41 callgsubr
            27 38 return
          </CharString>
          <CharString index="27">
            -133 -79 callgsubr
            return
          </CharString>
          <CharString index="28">
            414 339 -93 callgsubr
            return
          </CharString>
          <CharString index="29">
            rmoveto
            -49 -30 34 42 42 30 34 49 return
          </CharString>
          <CharString index="30">
            13 callgsubr
            hintmask 1001011000000000
            2 callgsubr
            hintmask 0101010010000000
            -44 callsubr
            hintmask 0101011000000000
            -34 callgsubr
            hintmask 0110110100100000
            56 callsubr
            hintmask 0101010001000000
            return
          </CharString>
          <CharString index="31">
            -3 callsubr
            161 return
          </CharString>
          <CharString index="32">
            -16 hlineto
            -61 -26 34 44 46 36 30 52 hvcurveto
            return
          </CharString>
          <CharString index="33">
            -25 -17 18 26 hvcurveto
            236 82 -236 vlineto
            -26 -13 -18 -27 vhcurveto
            return
          </CharString>
          <CharString index="34">
            29 vlineto
            35 14 42 49 41 23 -28 -44 -54 -34 -26 -40 vhcurveto
            return
          </CharString>
          <CharString index="35">
            rmoveto
            144 vlineto
            -165 75 -166 -75 rlineto
            -144 vlineto
            166 78 rlineto
            return
          </CharString>
          <CharString index="36">
            705 494 rmoveto
            -54 -43 -18 -29 -28 hvcurveto
            123 303 -50 vlineto
            -40 -9 -33 -34 -19 vhcurveto
            40 -28 -43 26 -64 hhcurveto
            -389 -280 59 callsubr
            return
          </CharString>
          <CharString index="37">
            -81 callgsubr
            -85 callgsubr
            198 return
          </CharString>
          <CharString index="38">
            -1 564 rmoveto
            133 -564 rlineto
            250 hlineto
            72 318 68 -318 rlineto
            250 hlineto
            134 564 rlineto
            -205 hlineto
            -48 -347 -77 347 rlineto
            -237 hlineto
            -73 -343 -47 343 rlineto
            return
          </CharString>
          <CharString index="39">
            34 -6 28 -10 23 return
          </CharString>
          <CharString index="40">
            rmoveto
            25 -18 17 -25 -25 -18 -17 -25 -25 18 -17 25 25 18 17 25 vhcurveto
            return
          </CharString>
          <CharString index="41">
            -53 -35 -36 -59 -57 -33 34 48 56 46 30 54 vhcurveto
            return
          </CharString>
          <CharString index="42">
            248 -51 hlineto
            -61 -20 -46 -104 vhcurveto
            return
          </CharString>
          <CharString index="43">
            338 callsubr
            -16 23 44 vhcurveto
            return
          </CharString>
          <CharString index="44">
            -82 67 rmoveto
            -28 -18 15 28 28 23 19 41 hvcurveto
            62 -12 hlineto
            -41 -36 -37 -44 vhcurveto
            endchar
          </CharString>
          <CharString index="45">
            179 -179 407 return
          </CharString>
          <CharString index="46">
            -60 -51 41 65 8 1 8 2 8 hvcurveto
            168 -114 rlineto
            -10 -17 -20 -6 -23 hhcurveto
            return
          </CharString>
          <CharString index="47">
            -110 vlineto
            -37 callsubr
            return
          </CharString>
          <CharString index="48">
            rmoveto
            -44 callgsubr
            241 69 rmoveto
            28 return
          </CharString>
          <CharString index="49">
            -407 -62 callsubr
            return
          </CharString>
          <CharString index="50">
            hhcurveto
            78 59 22 36 41 hvcurveto
            return
          </CharString>
          <CharString index="51">
            vstem
            270 571 rmoveto
            76 169 return
          </CharString>
          <CharString index="52">
            rmoveto
            51 33 36 56 58 32 -36 -51 -51 -32 -37 -58 -56 -33 37 51 vhcurveto
            return
          </CharString>
          <CharString index="53">
            -19 -109 hlineto
            -198 116 -108 186 return
          </CharString>
          <CharString index="54">
            204 571 return
          </CharString>
          <CharString index="55">
            40 39 -45 65 hhcurveto
            82 57 47 128 22 hvcurveto
            -109 hlineto
            return
          </CharString>
          <CharString index="56">
            204 275 callgsubr
            41 17 -31 -31 vhcurveto
            return
          </CharString>
          <CharString index="57">
            -176 124 -66 136 return
          </CharString>
          <CharString index="58">
            -60 callgsubr
            571 return
          </CharString>
          <CharString index="59">
            -25 -3 -31 -29 -26 -8 22 34 vhcurveto
            return
          </CharString>
          <CharString index="60">
            -2 9 -2 9 12 vvcurveto
            27 14 13 19 18 12 -16 -21 -68 -66 -23 -106 vhcurveto
            return
          </CharString>
          <CharString index="61">
            -78 callsubr
            46 return
          </CharString>
          <CharString index="62">
            708 vmoveto
            254 -493 rlineto
            -215 222 215 vlineto
            254 493 rlineto
            -250 hlineto
            -113 -251 -113 251 rlineto
            return
          </CharString>
          <CharString index="63">
            356 hlineto
            2 14 1 16 14 vvcurveto
            177 -119 107 -169 vhcurveto
            return
          </CharString>
          <CharString index="64">
            571 76 169 return
          </CharString>
          <CharString index="65">
            hintmask 01110000
            30 708 rmoveto
            162 -708 rlineto
            276 hlineto
            82 402 82 -402 rlineto
            276 hlineto
            162 708 rlineto
            -239 hlineto
            hintmask 10110000
            -64 -446 -96 446 rlineto
            -242 hlineto
            -96 -446 -64 446 rlineto
            return
          </CharString>
          <CharString index="66">
            hintmask 01101000
            30 355 rmoveto
            -211 133 -149 217 187 127 112 167 29 vhcurveto
            -234 hlineto
            hintmask 10011000
            -47 -21 -42 -27 -50 hhcurveto
            -75 -46 61 94 94 46 61 75 hvcurveto
            hintmask 01101000
            50 42 -27 -47 21 hvcurveto
            234 hlineto
            167 -29 -127 112 -187 hhcurveto
            -217 -133 -149 -211 hvcurveto
            return
          </CharString>
          <CharString index="67">
            -57 callsubr
            -121 204 return
          </CharString>
          <CharString index="68">
            -128 76 -106 165 162 78 101 133 vhcurveto
            return
          </CharString>
          <CharString index="69">
            -169 hlineto
            return
          </CharString>
          <CharString index="70">
            -84 callsubr
            -137 -73 -98 -137 return
          </CharString>
          <CharString index="71">
            119 -11 -77 81 -154 hhcurveto
            -10 -9 0 -1 -10 hvcurveto
            -4 5 -2 6 6 vvcurveto
            20 15 8 19 vhcurveto
            return
          </CharString>
          <CharString index="72">
            -1 -11 181 137 149 120 171 hstemhm
            48 215 -199 218 92 218 -199 215 hintmask 11101010
            149 402 rmoveto
            hintmask 11110010
            -67 -39 -34 -58 -80 vvcurveto
            -157 132 -79 148 148 132 79 157 80 -34 58 -67 39 vhcurveto
            hintmask 11101100
            51 29 34 49 72 vvcurveto
            103 -82 92 -182 -182 -82 -92 -103 vhcurveto
            hintmask 11101010
            -72 34 -49 51 -29 vhcurveto
            hintmask 11101100
            225 113 rmoveto
            -41 -21 -18 -25 -25 -21 18 41 38 20 23 26 26 20 -23 -38 vhcurveto
            hintmask 11110010
            -46 -208 rmoveto
            40 25 -29 -40 -38 -23 -30 -42 -42 -23 30 38 40 25 29 40 hvcurveto
            endchar
          </CharString>
          <CharString index="73">
            -42 -7 177 -177 210 40 97 -97 328 459 callgsubr
            return
          </CharString>
          <CharString index="74">
            hhcurveto
            -60 -126 65 hlineto
            58 41 0 -88 58 hvcurveto
            39 -54 -26 0 -86 hhcurveto
            -56 -125 return
          </CharString>
          <CharString index="75">
            -179 -94 -108 -130 -138 94 -112 179 return
          </CharString>
          <CharString index="76">
            -40 callsubr
            571 vlineto
            return
          </CharString>
          <CharString index="77">
            -106 vlineto
            499 callsubr
            return
          </CharString>
          <CharString index="78">
            176 -174 128 -128 175 -130 129 hstemhm
            return
          </CharString>
          <CharString index="79">
            93 20 59 80 126 vvcurveto
            77 return
          </CharString>
          <CharString index="80">
            hintmask 11100100
            111 callsubr
            hintmask 11110000
            -472 -708 hlineto
            hintmask 11100100
            408 callgsubr
            hintmask 11110000
            -250 100 hlineto
            hintmask 11101000
            337 callsubr
            hintmask 11110000
            -220 87 hlineto
            return
          </CharString>
          <CharString index="81">
            rmoveto
            64 -51 50 -64 -63 -50 -50 -64 -62 50 -51 63 64 51 51 62 vhcurveto
            endchar
          </CharString>
          <CharString index="82">
            143 -143 352 -12 callsubr
            return
          </CharString>
          <CharString index="83">
            148 92 94 134 5 hvcurveto
            return
          </CharString>
          <CharString index="84">
            -21 571 169 return
          </CharString>
          <CharString index="85">
            -4 -16 -7 -15 -10 rrcurveto
            75 -60 -102 43 -147 hhcurveto
            -45 28 callsubr
            28 -4 24 -8 21 hvcurveto
            return
          </CharString>
          <CharString index="86">
            -150 -134 -73 -172 -50 callsubr
            hvcurveto
            return
          </CharString>
          <CharString index="87">
            -61 -7 177 -177 235 40 170 116 193 hstemhm
            30 207 118 214 -199 199 hintmask 01111010
            254 228 rmoveto
            -207 hlineto
            -118 7 85 -117 166 hhcurveto
            199 65 145 251 207 -55 151 -226 -157 -101 -95 -151 -156 89 -77 122 58 47 24 36 24 hvcurveto
            hintmask 10111010
            -97 -6 -61 -54 vhcurveto
            hintmask 01111010
            -33 -16 20 38 -7 hvcurveto
            hintmask 01111100
            42 210 rmoveto
            -35 -24 20 37 41 23 18 36 36 23 -18 -41 -37 -24 -20 -35 hvcurveto
            endchar
          </CharString>
          <CharString index="88">
            -169 68 -170 vlineto
            return
          </CharString>
          <CharString index="89">
            -103 callsubr
            663 105 callgsubr
            return
          </CharString>
          <CharString index="90">
            192 callsubr
            280 -270 32 callgsubr
            return
          </CharString>
          <CharString index="91">
            248 callsubr
            hintmask 0101101100100000
            -63 callsubr
          </CharString>
          <CharString index="92">
            rmoveto
            32 294 callsubr
            33 vhcurveto
            return
          </CharString>
          <CharString index="93">
            20 282 rmoveto
            98 callgsubr
            vhcurveto
            return
          </CharString>
          <CharString index="94">
            400 34 callsubr
            return
          </CharString>
          <CharString index="95">
            -98 callsubr
            -11 return
          </CharString>
          <CharString index="96">
            87 -28 callgsubr
            return
          </CharString>
          <CharString index="97">
            -135 -203 hlineto
            -148 99 -92 158 vhcurveto
            return
          </CharString>
          <CharString index="98">
            239 -227 236 hintmask 0110010000000000
            327 -7 rmoveto
            hintmask 0101001000100000
            96 callsubr
            hintmask 0110000001000000
            24 23 -13 -43 2 hvcurveto
            hintmask 0110000100000000
            161 callsubr
            hintmask 1010001000100000
            23 callgsubr
            hintmask 0110100000000000
            -22 -28 9 52 -4 hvcurveto
            hintmask 0110010000000000
            -236 hlineto
            -159 10 127 -75 162 hhcurveto
            hintmask 0110000010000000
            return
          </CharString>
          <CharString index="99">
            -95 133 callgsubr
            vlineto
            endchar
          </CharString>
          <CharString index="100">
            11 18 20 6 23 hhcurveto
            return
          </CharString>
          <CharString index="101">
            504 callsubr
            hintmask 01100011
            116 callgsubr
            hintmask 01100101
            -52 callsubr
            hintmask 01101001
            131 callsubr
            hintmask 10000001
            224 callgsubr
            hintmask 01110001
            41 callsubr
          </CharString>
          <CharString index="102">
            196 48 276 171 callgsubr
            return
          </CharString>
          <CharString index="103">
            rmoveto
            -222 -362 hlineto
            -235 362 rlineto
            -222 -708 222 356 hlineto
            235 -356 rlineto
            222 hlineto
            return
          </CharString>
          <CharString index="104">
            183 114 return
          </CharString>
          <CharString index="105">
            549 callsubr
            -136 130 callgsubr
            404 51 rmoveto
            return
          </CharString>
          <CharString index="106">
            rmoveto
            -168 hlineto
            -80 -244 rlineto
            133 hlineto
            361 244 rmoveto
            -168 hlineto
            -103 -244 rlineto
            133 hlineto
            endchar
          </CharString>
          <CharString index="107">
            58 callgsubr
            -156 -72 -91 -113 30 callgsubr
            return
          </CharString>
          <CharString index="108">
            -146 76 -95 130 85 56 41 49 32 vhcurveto
            return
          </CharString>
          <CharString index="109">
            -140 84 -99 169 return
          </CharString>
          <CharString index="110">
            21 8 20 19 33 hhcurveto
            36 23 -24 -47 hvcurveto
            -97 hlineto
            return
          </CharString>
          <CharString index="111">
            20 callgsubr
            -35 -22 -22 -32 vhcurveto
            return
          </CharString>
          <CharString index="112">
            rmoveto
            -65 -28 42 62 hvcurveto
            46 vlineto
            167 -101 rlineto
            -29 -11 -23 -20 -40 hhcurveto
            return
          </CharString>
          <CharString index="113">
            192 callsubr
            308 -299 202 callsubr
            299 -217 217 return
          </CharString>
          <CharString index="114">
            -74 callgsubr
            261 -261 605 return
          </CharString>
          <CharString index="115">
            -95 60 -53 60 -20 vhcurveto
            -4 vlineto
            return
          </CharString>
          <CharString index="116">
            rmoveto
            28 22 20 31 38 17 -27 -24 -23 -13 -18 -20 -15 vhcurveto
            -49 -2 -26 29 32 vvcurveto
            return
          </CharString>
          <CharString index="117">
            191 -191 return
          </CharString>
          <CharString index="118">
            -107 callsubr
            631 305 -93 callgsubr
            return
          </CharString>
          <CharString index="119">
            85 0 198 70 176 70 194 59 callgsubr
            352 86 225 hintmask 11110100
            345 708 rmoveto
            -295 -264 -50 -176 50 -268 39 callgsubr
            70 hlineto
            hintmask 11101100
            130 176 hlineto
            hintmask 11110100
            -130 70 538 callgsubr
          </CharString>
          <CharString index="120">
            -133 166 callgsubr
            97 -86 145 57 callsubr
            return
          </CharString>
          <CharString index="121">
            -17 -26 7 31 -9 hvcurveto
            -192 hlineto
            -137 6 106 -72 130 hhcurveto
            return
          </CharString>
          <CharString index="122">
            -2 28 20 0 21 hhcurveto
            40 14 -15 -21 -20 -14 -13 -25 hvcurveto
            return
          </CharString>
          <CharString index="123">
            -41 -25 15 29 -6 hvcurveto
            -218 hlineto
            -143 15 107 -93 184 hhcurveto
            211 77 138 149 hvcurveto
            554 -221 vlineto
            return
          </CharString>
          <CharString index="124">
            223 callgsubr
            219 -219 576 return
          </CharString>
          <CharString index="125">
            36 22 -18 -30 6 hvcurveto
            197 hlineto
            111 -16 -79 91 -161 hhcurveto
            -159 -81 -84 -102 hvcurveto
            return
          </CharString>
          <CharString index="126">
            156 -205 -162 vlineto
            2 callsubr
            return
          </CharString>
          <CharString index="127">
            rmoveto
            -164 vlineto
            259 -94 rlineto
            148 vlineto
            return
          </CharString>
          <CharString index="128">
            383 callsubr
            10 callgsubr
            return
          </CharString>
          <CharString index="129">
            -92 callsubr
            endchar
          </CharString>
          <CharString index="130">
            46 0 302 -192 610 hstemhm
            365 224 -206 206 hintmask 01100000
            365 110 rmoveto
            hintmask 10100000
            -110 vlineto
            hintmask 10010000
            224 hlineto
            hintmask 01010000
            110 72 vlineto
            hintmask 10010000
            192 -72 vlineto
            hintmask 01010000
            418 -239 vlineto
            -298 -425 rlineto
            -185 vlineto
            hintmask 10010000
            331 192 rmoveto
            -108 hlineto
            108 165 rlineto
            endchar
          </CharString>
          <CharString index="131">
            -66 -36 -57 -50 -93 vvcurveto
            -108 81 -69 111 49 44 14 28 27 vhcurveto
            return
          </CharString>
          <CharString index="132">
            122 -97 59 -120 -142 -99 -88 -117 -82 44 -48 50 -25 vhcurveto
            return
          </CharString>
          <CharString index="133">
            280 callgsubr
            63 169 return
          </CharString>
          <CharString index="134">
            -110 -70 callgsubr
            return
          </CharString>
          <CharString index="135">
            hlineto
            -96 callgsubr
            return
          </CharString>
          <CharString index="136">
            44 callgsubr
            17 return
          </CharString>
          <CharString index="137">
            -182 103 -107 130 75 return
          </CharString>
          <CharString index="138">
            72 callsubr
            519 callgsubr
            -132 193 return
          </CharString>
          <CharString index="139">
            94 vlineto
            -13 21 37 -12 44 hhcurveto
            99 60 63 89 hvcurveto
            return
          </CharString>
          <CharString index="140">
            -156 -193 rlineto
            218 hlineto
            153 218 rlineto
            return
          </CharString>
          <CharString index="141">
            -399 146 callgsubr
            return
          </CharString>
          <CharString index="142">
            rmoveto
            -31 -23 18 36 34 23 19 31 34 16 -25 -28 1 hvcurveto
            -33 -21 -21 -30 vhcurveto
            return
          </CharString>
          <CharString index="143">
            92 callgsubr
            hstemhm
            50 630 callsubr
            return
          </CharString>
          <CharString index="144">
            rmoveto
            2 0 7 -1 11 vhcurveto
            return
          </CharString>
          <CharString index="145">
            30 callgsubr
            -51 callgsubr
            -63 return
          </CharString>
          <CharString index="146">
            609 callsubr
            49 210 -181 182 101 186 -179 168 -157 168 return
          </CharString>
          <CharString index="147">
            -30 -19 -37 -43 -33 -25 23 32 31 19 18 33 16 vhcurveto
            return
          </CharString>
          <CharString index="148">
            -82 -57 -48 -128 -22 hvcurveto
            endchar
          </CharString>
          <CharString index="149">
            -69 -34 46 56 -2 hvcurveto
            return
          </CharString>
          <CharString index="150">
            hstemhm
            57 440 -287 31 -31 34 -34 287 -180 180 return
          </CharString>
          <CharString index="151">
            hstemhm
            -11 130 callsubr
            return
          </CharString>
          <CharString index="152">
            -65 -20 23 39 hvcurveto
            -103 -17 hlineto
            return
          </CharString>
          <CharString index="153">
            50 708 rmoveto
            -708 222 708 vlineto
            return
          </CharString>
          <CharString index="154">
            1040 rmoveto
            -163 hlineto
            hintmask 10001010
            -52 -37 -38 -62 vhcurveto
            hintmask 01001010
            -63 -38 38 269 callgsubr
            168 94 80 153 vhcurveto
            hintmask 00101110
            -190 22 rmoveto
            hintmask 00011110
            40 -31 33 -43 -39 -33 -33 -40 vhcurveto
            hintmask 00101110
            -41 33 -32 39 43 31 32 41 vhcurveto
            endchar
          </CharString>
          <CharString index="155">
            52 vlineto
            57 21 78 196 200 21 -78 -57 vhcurveto
            -8 -83 -169 77 -571 -53 callsubr
            return
          </CharString>
          <CharString index="156">
            223 -222 222 -221 221 return
          </CharString>
          <CharString index="157">
            39 0 178 -161 -21 568 -20 return
          </CharString>
          <CharString index="158">
            280 295 callsubr
            629 -561 197 -197 561 hintmask 11010000
            628 callsubr
            48 vlineto
            180 -103 rlineto
            -29 -14 -28 -20 -45 hhcurveto
            hintmask 11001000
            271 409 callsubr
            vlineto
            hintmask 11100000
            -629 -38 callsubr
            hintmask 11010000
            68 -170 hlineto
            return
          </CharString>
          <CharString index="159">
            -28 callsubr
            301 -94 vlineto
            20 -23 -31 12 -43 hhcurveto
            return
          </CharString>
          <CharString index="160">
            -196 vlineto
            -80 -43 128 callsubr
            return
          </CharString>
          <CharString index="161">
            -13 11 -16 8 -19 6 rrcurveto
            4 vlineto
            59 25 36 51 70 vvcurveto
            return
          </CharString>
          <CharString index="162">
            57 -32 552 callsubr
            -119 -121 -72 -176 return
          </CharString>
          <CharString index="163">
            142 110 90 120 24 hvcurveto
            return
          </CharString>
          <CharString index="164">
            158 224 callsubr
            return
          </CharString>
          <CharString index="165">
            hhcurveto
            116 callsubr
            return
          </CharString>
          <CharString index="166">
            143 callgsubr
            hvcurveto
            return
          </CharString>
          <CharString index="167">
            260 callsubr
            28 298 callsubr
            -214 -17 callsubr
            214 197 111 205 return
          </CharString>
          <CharString index="168">
            173 128 3 callgsubr
            413 -12 callsubr
            960 -907 199 return
          </CharString>
          <CharString index="169">
            -3 27 hhcurveto
            128 105 73 135 130 -99 76 -134 -135 -101 -76 -130 hvcurveto
            return
          </CharString>
          <CharString index="170">
            214 -105 callsubr
            return
          </CharString>
          <CharString index="171">
            165 hstem
            66 204 return
          </CharString>
          <CharString index="172">
            41 callgsubr
            65 82 21 -48 -35 hvcurveto
            -20 vlineto
            return
          </CharString>
          <CharString index="173">
            175 callgsubr
            -11 return
          </CharString>
          <CharString index="174">
            rmoveto
            -114 -31 30 40 28 20 23 38 hvcurveto
            return
          </CharString>
          <CharString index="175">
            180 callgsubr
            10 callgsubr
            return
          </CharString>
          <CharString index="176">
            144 92 79 140 hvcurveto
            return
          </CharString>
          <CharString index="177">
            rmoveto
            -128 hlineto
            64 197 rlineto
            endchar
          </CharString>
          <CharString index="178">
            521 callgsubr
            vhcurveto
            38 -39 hlineto
            return
          </CharString>
          <CharString index="179">
            28 142 45 21 callsubr
            -11 582 -533 34 callgsubr
            return
          </CharString>
          <CharString index="180">
            vlineto
            338 callsubr
            -13 23 37 -3 vhcurveto
            -1 2 rlineto
            114 -15 -97 92 -170 329 callsubr
            hvcurveto
            return
          </CharString>
          <CharString index="181">
            481 163 callgsubr
            90 574 callsubr
            return
          </CharString>
          <CharString index="182">
            -104 -126 rlineto
            218 hlineto
            113 157 rlineto
            return
          </CharString>
          <CharString index="183">
            rmoveto
            146 hlineto
            118 295 rlineto
            -220 hlineto
            return
          </CharString>
          <CharString index="184">
            110 hlineto
            -19 -24 -10 -30 -35 vvcurveto
            return
          </CharString>
          <CharString index="185">
            -377 565 79 86 146 hstemhm
            50 307 callsubr
            hintmask 11100000
            206 876 430 callsubr
            hintmask 11010000
            235 callsubr
            hintmask 11100000
            199 callgsubr
            endchar
          </CharString>
          <CharString index="186">
            hhcurveto
            -156 -138 -81 -168 -50 callsubr
            hvcurveto
            return
          </CharString>
          <CharString index="187">
            469 callsubr
            -23 -41 rrcurveto
            return
          </CharString>
          <CharString index="188">
            rmoveto
            -71 225 callsubr
            return
          </CharString>
          <CharString index="189">
            270 hmoveto
            -43 callsubr
            -88 vlineto
            335 -174 264 callgsubr
            106 -17 0 -51 98 hvcurveto
            -91 -169 77 -571 hlineto
            return
          </CharString>
          <CharString index="190">
            -19 -109 hlineto
            -172 93 -101 153 -20 vhcurveto
            -99 -124 rlineto
            -10 217 vlineto
            return
          </CharString>
          <CharString index="191">
            564 callgsubr
            -185 147 -99 188 hvcurveto
            return
          </CharString>
          <CharString index="192">
            470 callgsubr
            197 return
          </CharString>
          <CharString index="193">
            435 callgsubr
            204 return
          </CharString>
          <CharString index="194">
            rmoveto
            51 458 -64 callgsubr
            -75 -55 -29 -49 -36 hvcurveto
            -171 167 callsubr
            return
          </CharString>
          <CharString index="195">
            -44 -38 -10 -19 -31 hvcurveto
            -191 hlineto
            -150 -134 -71 -170 -50 callsubr
            hvcurveto
            147 callsubr
            return
          </CharString>
          <CharString index="196">
            21 14 17 23 22 14 -16 -24 -31 -27 -13 -31 vhcurveto
            return
          </CharString>
          <CharString index="197">
            158 80 95 146 hvcurveto
            189 callgsubr
            return
          </CharString>
          <CharString index="198">
            188 callsubr
            -8 hlineto
            return
          </CharString>
          <CharString index="199">
            rmoveto
            32 24 24 34 32 24 -24 -32 -33 -24 -23 -32 546 callsubr
          </CharString>
          <CharString index="200">
            177 207 196 -184 184 return
          </CharString>
          <CharString index="201">
            564 rmoveto
            504 callgsubr
            564 vlineto
            return
          </CharString>
          <CharString index="202">
            113 -31 hlineto
            -66 -15 -60 -113 vhcurveto
            -8 hlineto
            132 callsubr
            -66 -38 -48 -92 520 callsubr
            vhcurveto
            return
          </CharString>
          <CharString index="203">
            171 99 96 130 hvcurveto
            218 -329 -15 89 vvcurveto
            24 14 12 18 vhcurveto
            return
          </CharString>
          <CharString index="204">
            139 callsubr
            -207 307 27 168 return
          </CharString>
          <CharString index="205">
            85 hlineto
            16 10 -5 -10 -10 -10 -6 -16 hvcurveto
            return
          </CharString>
          <CharString index="206">
            0 26 callsubr
            return
          </CharString>
          <CharString index="207">
            137 -87 79 -107 29 vhcurveto
            50 vlineto
            return
          </CharString>
          <CharString index="208">
            115 0 274 620 callgsubr
            return
          </CharString>
          <CharString index="209">
            10 callsubr
            513 return
          </CharString>
          <CharString index="210">
            8 callsubr
            -43 -12 -54 -36 -12 -68 rrcurveto
            -1 hlineto
            -1 -8 -1 -8 -3 -8 -173 118 rcurveline
            14 20 24 7 27 hhcurveto
            19 11 -1 -3 16 hvcurveto
            132 vlineto
            6 -24 -25 1 -19 hhcurveto
            return
          </CharString>
          <CharString index="211">
            rmoveto
            -43 callsubr
            -283 -740 vlineto
            endchar
          </CharString>
          <CharString index="212">
            hhcurveto
            hintmask 0101011001000000
            45 callgsubr
            hintmask 0101011010000000
            -194 hlineto
            hintmask 1000101010000000
            -66 callsubr
            hintmask 0010101100000000
            160 hlineto
            hintmask 0011011100000000
            348 callsubr
          </CharString>
          <CharString index="213">
            481 -476 176 -101 171 callsubr
            660 260 callgsubr
            -432 173 -148 -62 callsubr
            97 callsubr
            return
          </CharString>
          <CharString index="214">
            -130 -103 -107 -182 98 callgsubr
            hvcurveto
            return
          </CharString>
          <CharString index="215">
            167 callgsubr
            111 -196 vlineto
            return
          </CharString>
          <CharString index="216">
            -86 -31 -51 -68 -2 vhcurveto
            -42 -1 -31 18 36 vvcurveto
            return
          </CharString>
          <CharString index="217">
            hstemhm
            20 224 -224 573 return
          </CharString>
          <CharString index="218">
            522 531 553 callsubr
            return
          </CharString>
          <CharString index="219">
            rmoveto
            -147 431 147 vlineto
            return
          </CharString>
          <CharString index="220">
            vhcurveto
            -79 callsubr
            return
          </CharString>
          <CharString index="221">
            431 callsubr
            241 callsubr
            return
          </CharString>
          <CharString index="222">
            203 374 callsubr
            return
          </CharString>
          <CharString index="223">
            82 callgsubr
            hvcurveto
            return
          </CharString>
          <CharString index="224">
            -29 168 vlineto
            return
          </CharString>
          <CharString index="225">
            42 callgsubr
            136 -87 callgsubr
            return
          </CharString>
          <CharString index="226">
            -63 -25 34 50 hvcurveto
            -174 hlineto
            -142 80 -91 182 return
          </CharString>
          <CharString index="227">
            -31 vlineto
            -43 -6 -41 -37 -23 vhcurveto
            35 -44 -61 21 -80 hhcurveto
            return
          </CharString>
          <CharString index="228">
            -21 384 582 callgsubr
            return
          </CharString>
          <CharString index="229">
            -80 -43 -63 -90 vhcurveto
            return
          </CharString>
          <CharString index="230">
            581 callsubr
            48 42 callgsubr
            -95 173 58 209 callgsubr
            207 135 -5 callsubr
            return
          </CharString>
          <CharString index="231">
            1303 hmoveto
            -43 callsubr
            -1390 -169 605 -49 vlineto
            -45 -12 -32 -30 -19 vhcurveto
            42 -47 -70 24 -99 79 callsubr
            return
          </CharString>
          <CharString index="232">
            -51 vlineto
            -48 -12 -38 -56 -15 vhcurveto
            52 -56 -86 20 -91 hhcurveto
            -163 hlineto
            -80 callgsubr
            return
          </CharString>
          <CharString index="233">
            -80 callgsubr
            -147 117 -79 121 116 104 return
          </CharString>
          <CharString index="234">
            -34 -27 15 34 -5 hvcurveto
            -213 hlineto
            -115 10 107 -87 163 hhcurveto
            return
          </CharString>
          <CharString index="235">
            -63 -91 113 callsubr
            return
          </CharString>
          <CharString index="236">
            vlineto
            -80 callgsubr
            hvcurveto
            return
          </CharString>
          <CharString index="237">
            419 -354 202 return
          </CharString>
          <CharString index="238">
            -32 -5 -15 -15 -24 hhcurveto
            return
          </CharString>
          <CharString index="239">
            -3 -24 -2 -22 -23 vvcurveto
            return
          </CharString>
          <CharString index="240">
            167 -167 203 58 200 -160 160 44 -25 callsubr
            606 -546 579 callgsubr
            -479 403 -194 194 return
          </CharString>
          <CharString index="241">
            222 vstem
            375 379 rmoveto
            185 -81 vlineto
            7 36 23 10 51 -6 rrcurveto
            189 vlineto
            -191 17 -112 -86 -2 -160 rrcurveto
            -60 -185 60 -379 222 379 hlineto
            return
          </CharString>
          <CharString index="242">
            253 571 rmoveto
            107 callsubr
            return
          </CharString>
          <CharString index="243">
            -15 63 callgsubr
            return
          </CharString>
          <CharString index="244">
            -154 91 -74 147 160 70 103 135 vhcurveto
            return
          </CharString>
          <CharString index="245">
            49 hlineto
            42 21 -21 -29 -25 -14 -18 -26 hvcurveto
            return
          </CharString>
          <CharString index="246">
            -98 callsubr
            42 207 return
          </CharString>
          <CharString index="247">
            -258 708 rlineto
            -256 hlineto
            return
          </CharString>
          <CharString index="248">
            0 115 callsubr
            return
          </CharString>
          <CharString index="249">
            205 -4 callgsubr
          </CharString>
          <CharString index="250">
            hintmask 1110000100000000
            111 callsubr
            hintmask 1110010000000000
            -472 -708 hlineto
            hintmask 1110000100000000
            408 callgsubr
            hintmask 1110010000000000
            -250 100 hlineto
            hintmask 1110001000000000
            337 callsubr
            return
          </CharString>
          <CharString index="251">
            295 callsubr
            690 -637 614 callgsubr
            -9 203 return
          </CharString>
          <CharString index="252">
            95 -5 205 -205 279 162 279 -205 205 return
          </CharString>
          <CharString index="253">
            -5 -12 1 1 -9 hvcurveto
            return
          </CharString>
          <CharString index="254">
            49 159 hlineto
            return
          </CharString>
          <CharString index="255">
            rmoveto
            hintmask 11011010
            17 -103 vlineto
            hintmask 11101010
            253 callgsubr
            hintmask 11010101
            45 callsubr
            hintmask 11100101
            187 callgsubr
            hintmask 11101010
            155 callgsubr
          </CharString>
          <CharString index="256">
            175 -166 115 callsubr
            -111 429 callsubr
            -151 162 -162 385 -169 -26 callgsubr
            return
          </CharString>
          <CharString index="257">
            -101 -135 rlineto
            204 hlineto
            64 97 rlineto
            1 hlineto
            64 -97 rlineto
            205 hlineto
            -103 138 rlineto
            return
          </CharString>
          <CharString index="258">
            280 225 rmoveto
            -29 -22 16 28 31 26 17 34 hvcurveto
            45 -32 hlineto
            -33 -14 -27 -40 vhcurveto
            return
          </CharString>
          <CharString index="259">
            -95 200 409 callgsubr
            -627 -169 352 -106 vlineto
            34 -33 -47 18 -54 hhcurveto
            return
          </CharString>
          <CharString index="260">
            158 -158 193 48 253 -152 152 45 -25 callsubr
            606 -546 190 -167 403 -194 194 return
          </CharString>
          <CharString index="261">
            250 183 hstem
            20 466 vstem
            20 433 rmoveto
            -183 466 183 vlineto
            endchar
          </CharString>
          <CharString index="262">
            hintmask 11010000
            272 231 rmoveto
            77 42 23 80 vhcurveto
            hintmask 11001000
            63 hlineto
            hintmask 10101000
            237 vlineto
            hintmask 10110000
            -73 -68 -45 -63 -44 hvcurveto
            hintmask 11010000
            104 601 callgsubr
            return
          </CharString>
          <CharString index="263">
            79 23 -23 163 77 295 callsubr
            374 -374 606 -540 194 callsubr
            173 return
          </CharString>
          <CharString index="264">
            243 -178 169 -164 536 callgsubr
            return
          </CharString>
          <CharString index="265">
            -121 80 -97 153 139 79 85 130 5 0 9 -1 12 vhcurveto
            -195 hlineto
            return
          </CharString>
          <CharString index="266">
            -56 callgsubr
            142 81 77 119 5 0 9 -1 11 vhcurveto
            -195 hlineto
            return
          </CharString>
          <CharString index="267">
            -207 291 68 -74 vvcurveto
            -14 -14 -12 -23 vhcurveto
            return
          </CharString>
          <CharString index="268">
            239 hlineto
            147 -6 -110 82 -171 hhcurveto
            return
          </CharString>
          <CharString index="269">
            -612 -3 callgsubr
            return
          </CharString>
          <CharString index="270">
            198 callgsubr
            -11 return
          </CharString>
          <CharString index="271">
            28 20 -17 -23 4 hvcurveto
            195 hlineto
            return
          </CharString>
          <CharString index="272">
            96 -86 145 158 80 return
          </CharString>
          <CharString index="273">
            -9 -74 callgsubr
            221 return
          </CharString>
          <CharString index="274">
            hlineto
            -57 callgsubr
            return
          </CharString>
          <CharString index="275">
            214 348 callgsubr
            return
          </CharString>
          <CharString index="276">
            -346 78 86 147 return
          </CharString>
          <CharString index="277">
            -157 87 -124 return
          </CharString>
          <CharString index="278">
            178 -178 return
          </CharString>
          <CharString index="279">
            72 -11 hlineto
            -52 -20 -23 -35 vhcurveto
            -78 vlineto
            return
          </CharString>
          <CharString index="280">
            203 -202 159 -119 162 return
          </CharString>
          <CharString index="281">
            210 -210 432 -395 173 return
          </CharString>
          <CharString index="282">
            -77 221 564 -221 vlineto
            return
          </CharString>
          <CharString index="283">
            -82 vlineto
            24 -39 -48 11 -53 hhcurveto
            return
          </CharString>
          <CharString index="284">
            -169 -87 callgsubr
            44 return
          </CharString>
          <CharString index="285">
            -5 0 -3 -1 -10 return
          </CharString>
          <CharString index="286">
            hstemhm
            20 225 return
          </CharString>
          <CharString index="287">
            201 -201 269 -267 205 -205 267 -157 157 36 209 74 202 callsubr
            308 -274 200 -189 189 return
          </CharString>
          <CharString index="288">
            141 callsubr
            -123 50 callgsubr
            -126 267 callsubr
            37 205 94 return
          </CharString>
          <CharString index="289">
            131 callgsubr
            -98 callgsubr
            return
          </CharString>
          <CharString index="290">
            -215 -206 rlineto
            -174 478 184 -235 vlineto
            return
          </CharString>
          <CharString index="291">
            633 callgsubr
            -168 339 return
          </CharString>
          <CharString index="292">
            336 263 rmoveto
            -94 100 94 hlineto
            282 hmoveto
            169 return
          </CharString>
          <CharString index="293">
            hvcurveto
            37 -39 hlineto
            -32 -14 return
          </CharString>
          <CharString index="294">
            471 -204 204 return
          </CharString>
          <CharString index="295">
            -66 -14 432 callsubr
            return
          </CharString>
          <CharString index="296">
            141 460 callgsubr
            return
          </CharString>
          <CharString index="297">
            -19 -15 -26 -16 -46 hhcurveto
            return
          </CharString>
          <CharString index="298">
            hmoveto
            60 callgsubr
            return
          </CharString>
          <CharString index="299">
            207 -207 return
          </CharString>
          <CharString index="300">
            -203 -298 rlineto
            298 -222 -708 222 307 vlineto
            206 -307 rlineto
            264 hlineto
            -260 369 244 339 rlineto
            endchar
          </CharString>
          <CharString index="301">
            6 callsubr
            59 return
          </CharString>
          <CharString index="302">
            hstemhm
            -12 601 -543 205 -205 426 -400 193 10 197 return
          </CharString>
          <CharString index="303">
            -16 hlineto
            -61 -26 34 44 44 36 28 52 hvcurveto
            85 hlineto
            -1 -10 0 -11 -11 vvcurveto
            return
          </CharString>
          <CharString index="304">
            442 0 262 -241 310 callsubr
            return
          </CharString>
          <CharString index="305">
            113 51 80 96 42 -7 46 -18 47 hvcurveto
            return
          </CharString>
          <CharString index="306">
            -111 -86 -67 -116 hvcurveto
            return
          </CharString>
          <CharString index="307">
            hhcurveto
            60 44 17 28 32 hvcurveto
            return
          </CharString>
          <CharString index="308">
            -167 115 rlineto
            return
          </CharString>
          <CharString index="309">
            204 -204 return
          </CharString>
          <CharString index="310">
            -61 -28 47 57 hvcurveto
            48 vlineto
            179 -101 rlineto
            -30 -15 -30 -21 -45 hhcurveto
            101 171 rmoveto
            -188 109 rlineto
            188 hlineto
            277 hmoveto
            169 return
          </CharString>
          <CharString index="311">
            581 callsubr
            119 66 callsubr
            968 -915 207 135 -5 callsubr
            return
          </CharString>
          <CharString index="312">
            180 rmoveto
            -41 -22 17 20 -10 hvcurveto
            70 18 36 51 56 vvcurveto
            97 -71 70 -161 vhcurveto
            -254 62 559 -276 hlineto
            -81 -53 -34 -53 vhcurveto
            return
          </CharString>
          <CharString index="313">
            -73 callgsubr
            endchar
          </CharString>
          <CharString index="314">
            -44 -15 -23 -31 return
          </CharString>
          <CharString index="315">
            307 -307 481 -401 171 callsubr
            660 -604 604 -432 173 -141 173 58 247 callsubr
            return
          </CharString>
          <CharString index="316">
            rmoveto
            -27 -22 15 33 33 27 16 36 186 callsubr
            -26 -37 vhcurveto
            return
          </CharString>
          <CharString index="317">
            -81 -89 261 callgsubr
            258 470 callsubr
            28 142 45 144 return
          </CharString>
          <CharString index="318">
            rmoveto
            33 294 callsubr
            32 vhcurveto
            return
          </CharString>
          <CharString index="319">
            515 callgsubr
            -121 204 return
          </CharString>
          <CharString index="320">
            631 callsubr
            -138 -62 callsubr
            return
          </CharString>
          <CharString index="321">
            -53 hlineto
            -29 -12 12 26 hvcurveto
            152 92 185 -92 return
          </CharString>
          <CharString index="322">
            169 80 -24 callgsubr
            return
          </CharString>
          <CharString index="323">
            -23 callgsubr
            227 -76 callgsubr
            return
          </CharString>
          <CharString index="324">
            -53 callsubr
            78 169 -282 return
          </CharString>
          <CharString index="325">
            120 169 -606 -38 callsubr
            return
          </CharString>
          <CharString index="326">
            97 -43 71 -74 31 vhcurveto
            57 vlineto
            return
          </CharString>
          <CharString index="327">
            46 159 -374 -159 hlineto
            return
          </CharString>
          <CharString index="328">
            -80 hlineto
            -5 -29 -1 -28 -27 vvcurveto
            return
          </CharString>
          <CharString index="329">
            227 callsubr
            735 return
          </CharString>
          <CharString index="330">
            442 -442 472 return
          </CharString>
          <CharString index="331">
            79 95 146 hvcurveto
            return
          </CharString>
          <CharString index="332">
            -40 38 44 -5 hvcurveto
            return
          </CharString>
          <CharString index="333">
            352 537 rmoveto
            return
          </CharString>
          <CharString index="334">
            176 -176 return
          </CharString>
          <CharString index="335">
            112 callgsubr
            -41 -20 -28 -30 -14 -41 -13 -32 -29 -23 -43 -1 rrcurveto
            598 callgsubr
            return
          </CharString>
          <CharString index="336">
            -136 -70 -185 70 -148 vlineto
            -175 100 -56 132 vhcurveto
            84 189 214 callsubr
            return
          </CharString>
          <CharString index="337">
            1 170 rmoveto
            37 5 29 14 20 22 rrcurveto
            -109 vlineto
            -8 -1 -7 -1 -7 vhcurveto
            -123 82 11 4 13 3 15 1 rlinecurve
            endchar
          </CharString>
          <CharString index="338">
            427 callsubr
            38 callsubr
            return
          </CharString>
          <CharString index="339">
            163 227 rlineto
            -1 10 10 -1 11 hhcurveto
            371 callgsubr
            return
          </CharString>
          <CharString index="340">
            -79 175 79 175 rlineto
            -201 hlineto
            -77 -175 77 -175 rlineto
            return
          </CharString>
          <CharString index="341">
            251 callsubr
            vhcurveto
            return
          </CharString>
          <CharString index="342">
            72 -12 hlineto
            -51 -21 -23 -34 vhcurveto
            -79 vlineto
            return
          </CharString>
          <CharString index="343">
            -74 60 -46 101 42 38 6 10 33 vhcurveto
            return
          </CharString>
          <CharString index="344">
            -107 -72 -48 -90 -12 2 -16 3 -15 hvcurveto
            return
          </CharString>
          <CharString index="345">
            -31 vlineto
            91 callsubr
            return
          </CharString>
          <CharString index="346">
            -35 rmoveto
            -156 -147 hlineto
            return
          </CharString>
          <CharString index="347">
            -52 -37 -57 -30 hvcurveto
            -3 hlineto
            return
          </CharString>
          <CharString index="348">
            245 vlineto
            62 return
          </CharString>
          <CharString index="349">
            -169 165 -181 vlineto
            -108 49 -90 92 -33 vhcurveto
            hintmask 0100000000110000
            -147 -194 rlineto
            218 hlineto
            137 211 rlineto
            return
          </CharString>
          <CharString index="350">
            592 callsubr
            388 callsubr
            return
          </CharString>
          <CharString index="351">
            -78 callsubr
            38 30 -23 -32 7 hvcurveto
            1 -5 0 -4 1 -4 rrcurveto
            -4 vlineto
            -52 1 -34 -28 -44 hhcurveto
            return
          </CharString>
          <CharString index="352">
            195 62 157 57 249 -205 205 return
          </CharString>
          <CharString index="353">
            35 107 rlineto
            236 hlineto
            return
          </CharString>
          <CharString index="354">
            470 callgsubr
            204 return
          </CharString>
          <CharString index="355">
            72 76 31 56 27 hvcurveto
            return
          </CharString>
          <CharString index="356">
            307 -251 164 -84 604 -400 158 -158 396 callgsubr
            57 204 return
          </CharString>
          <CharString index="357">
            rmoveto
            -51 vlineto
            -52 -15 -47 -26 -34 -40 -219 131 rcurveline
            1 vlineto
            return
          </CharString>
          <CharString index="358">
            303 callgsubr
            189 callsubr
            return
          </CharString>
          <CharString index="359">
            120 callgsubr
            135 return
          </CharString>
          <CharString index="360">
            307 -286 -21 return
          </CharString>
          <CharString index="361">
            453 callgsubr
            -73 39 -52 58 -31 -109 -147 rcurveline
            113 callgsubr
            return
          </CharString>
          <CharString index="362">
            rmoveto
            -46 -1 -27 31 37 vvcurveto
            37 23 29 45 5 vhcurveto
            31 4 26 11 20 18 rrcurveto
            -101 vlineto
            -41 -29 -28 -43 -1 vhcurveto
            return
          </CharString>
          <CharString index="363">
            58 50 15 31 32 hvcurveto
            -85 vlineto
            return
          </CharString>
          <CharString index="364">
            -91 -55 -37 -57 -32 hvcurveto
            -3 hlineto
            return
          </CharString>
          <CharString index="365">
            192 callgsubr
            -163 172 return
          </CharString>
          <CharString index="366">
            242 callgsubr
            178 hstemhm
            42 return
          </CharString>
          <CharString index="367">
            -21 63 169 return
          </CharString>
          <CharString index="368">
            421 -68 rmoveto
            -64 -43 28 53 -8 hvcurveto
            107 20 30 81 87 vvcurveto
            70 112 -196 vlineto
            -80 -43 -63 -91 vhcurveto
            return
          </CharString>
          <CharString index="369">
            104 35 -35 159 68 295 callsubr
            683 -621 593 callgsubr
            177 return
          </CharString>
          <CharString index="370">
            566 callsubr
            18 -36 -56 -2 vhcurveto
            -5 vlineto
            -50 callsubr
            vhcurveto
            return
          </CharString>
          <CharString index="371">
            136 callgsubr
            -91 81 -128 return
          </CharString>
          <CharString index="372">
            -2 10 -1 7 9 vvcurveto
            20 11 18 23 27 10 -18 -25 vhcurveto
            return
          </CharString>
          <CharString index="373">
            hlineto
            -80 callgsubr
            -147 117 -78 121 return
          </CharString>
          <CharString index="374">
            522 callgsubr
            385 -98 callsubr
            return
          </CharString>
          <CharString index="375">
            114 51 80 96 42 -8 46 -18 47 hvcurveto
            return
          </CharString>
          <CharString index="376">
            202 20 204 -171 196 return
          </CharString>
          <CharString index="377">
            169 273 callgsubr
            return
          </CharString>
          <CharString index="378">
            267 vlineto
            43 3 18 30 38 hhcurveto
            return
          </CharString>
          <CharString index="379">
            189 callgsubr
            vlineto
            return
          </CharString>
          <CharString index="380">
            -68 269 -269 336 return
          </CharString>
          <CharString index="381">
            13 26 24 17 16 33 hvcurveto
            return
          </CharString>
          <CharString index="382">
            -299 221 327 vlineto
            return
          </CharString>
          <CharString index="383">
            171 callsubr
            401 return
          </CharString>
          <CharString index="384">
            -17 -15 -26 -15 -44 hhcurveto
            return
          </CharString>
          <CharString index="385">
            207 315 205 return
          </CharString>
          <CharString index="386">
            20 -2 18 -4 17 vhcurveto
            return
          </CharString>
          <CharString index="387">
            34 33 10 42 vhcurveto
            return
          </CharString>
          <CharString index="388">
            171 58 198 callgsubr
            57 197 423 200 -76 76 -76 194 return
          </CharString>
          <CharString index="389">
            52 callgsubr
            571 vlineto
            return
          </CharString>
          <CharString index="390">
            -81 callgsubr
            137 callsubr
            120 vlineto
            return
          </CharString>
          <CharString index="391">
            591 callgsubr
            -19 172 -164 720 -570 201 -125 180 return
          </CharString>
          <CharString index="392">
            -24 -24 -3 -6 -22 hvcurveto
            -734 -169 588 hlineto
            -1 -9 -1 -11 -10 vvcurveto
            -9 2 -13 2 -13 vhcurveto
            return
          </CharString>
          <CharString index="393">
            -98 -229 hlineto
            -121 80 -97 153 139 79 84 128 3 0 7 -1 8 vhcurveto
            -195 hlineto
            return
          </CharString>
          <CharString index="394">
            -67 callgsubr
            94 return
          </CharString>
          <CharString index="395">
            -336 21 -21 740 512 callsubr
            740 vlineto
            endchar
          </CharString>
          <CharString index="396">
            301 callsubr
            58 169 hstemhm
            return
          </CharString>
          <CharString index="397">
            hhcurveto
            -175 -91 -103 -130 -135 94 -108 180 return
          </CharString>
          <CharString index="398">
            139 callsubr
            135 196 116 return
          </CharString>
          <CharString index="399">
            579 callgsubr
            -270 194 -194 314 return
          </CharString>
          <CharString index="400">
            189 190 185 -185 321 hstemhm
            85 222 return
          </CharString>
          <CharString index="401">
            24 24 34 33 23 -24 -32 -33 -23 -24 -33 -34 -24 24 return
          </CharString>
          <CharString index="402">
            169 hstemhm
            -11 return
          </CharString>
          <CharString index="403">
            633 387 rmoveto
            -433 -407 rlineto
            234 hlineto
            199 200 rlineto
            391 vmoveto
            169 vlineto
            return
          </CharString>
          <CharString index="404">
            200 callgsubr
            97 21 43 80 85 vvcurveto
            71 110 -197 vlineto
            -80 -42 -63 -91 vhcurveto
            return
          </CharString>
          <CharString index="405">
            383 callgsubr
            272 -272 308 callsubr
            -89 149 39 295 callsubr
            279 return
          </CharString>
          <CharString index="406">
            -129 rmoveto
            -46 -28 31 39 38 27 33 51 24 23 1 3 21 hvcurveto
            -74 vlineto
            -42 -29 -29 -43 vhcurveto
            return
          </CharString>
          <CharString index="407">
            163 -205 382 callgsubr
          </CharString>
          <CharString index="408">
            235 -235 462 -400 173 return
          </CharString>
          <CharString index="409">
            -61 -14 -52 -32 -66 hhcurveto
            520 callsubr
            return
          </CharString>
          <CharString index="410">
            429 callsubr
            65 169 hstemhm
            return
          </CharString>
          <CharString index="411">
            -105 -56 -56 -73 -45 19 -39 39 -27 hvcurveto
            return
          </CharString>
          <CharString index="412">
            259 -94 rlineto
            148 vlineto
            endchar
          </CharString>
          <CharString index="413">
            -6 24 25 -3 27 hhcurveto
            return
          </CharString>
          <CharString index="414">
            181 -109 109 return
          </CharString>
          <CharString index="415">
            480 -430 162 return
          </CharString>
          <CharString index="416">
            -169 86 -217 vlineto
            return
          </CharString>
          <CharString index="417">
            -21 708 -20 return
          </CharString>
          <CharString index="418">
            -169 395 return
          </CharString>
          <CharString index="419">
            77 -77 194 hintmask 0000010100000000
            670 -91 callsubr
            vlineto
            hintmask 0000011000000000
            -681 -38 callsubr
            return
          </CharString>
          <CharString index="420">
            492 350 callgsubr
            return
          </CharString>
          <CharString index="421">
            176 39 197 -197 513 -400 179 -179 400 -12 callsubr
            return
          </CharString>
          <CharString index="422">
            32 10 -28 -26 -2 hvcurveto
            172 hlineto
            115 12 -58 94 -122 hhcurveto
            -103 -43 -62 -64 -12 hvcurveto
            return
          </CharString>
          <CharString index="423">
            -93 -53 -61 -91 -50 -27 490 callsubr
            return
          </CharString>
          <CharString index="424">
            169 -159 168 hstemhm
            86 189 103 184 return
          </CharString>
          <CharString index="425">
            483 callgsubr
            -145 169 return
          </CharString>
          <CharString index="426">
            247 callsubr
            -168 227 86 204 return
          </CharString>
          <CharString index="427">
            -50 callgsubr
            69 87 callgsubr
            return
          </CharString>
          <CharString index="428">
            116 -205 -122 vlineto
            2 callsubr
            return
          </CharString>
          <CharString index="429">
            619 callgsubr
            220 -220 253 callsubr
            return
          </CharString>
          <CharString index="430">
            -25 -19 12 29 -1 hvcurveto
            -183 -258 193 hlineto
            return
          </CharString>
          <CharString index="431">
            -41 -22 27 33 -4 hvcurveto
            -190 -294 198 hlineto
            return
          </CharString>
          <CharString index="432">
            -29 -26 339 callsubr
            -750 -169 601 hlineto
            return
          </CharString>
          <CharString index="433">
            306 callgsubr
            -121 return
          </CharString>
          <CharString index="434">
            49 139 44 295 callsubr
            return
          </CharString>
          <CharString index="435">
            hstemhm
            21 520 -495 200 return
          </CharString>
          <CharString index="436">
            hhcurveto
            -179 -94 -108 -130 return
          </CharString>
          <CharString index="437">
            370 callgsubr
            203 return
          </CharString>
          <CharString index="438">
            226 callgsubr
            95 204 return
          </CharString>
          <CharString index="439">
            -100 196 -41 callgsubr
            return
          </CharString>
          <CharString index="440">
            -138 -86 -87 -123 hvcurveto
            return
          </CharString>
          <CharString index="441">
            -132 70 callgsubr
            return
          </CharString>
          <CharString index="442">
            -149 104 -89 151 vhcurveto
            return
          </CharString>
          <CharString index="443">
            5 168 callgsubr
            return
          </CharString>
          <CharString index="444">
            220 167 hlineto
            return
          </CharString>
          <CharString index="445">
            207 callsubr
            -32 return
          </CharString>
          <CharString index="446">
            -3 -6 -23 hvcurveto
            return
          </CharString>
          <CharString index="447">
            274 -161 166 -49 86 callgsubr
            432 callgsubr
            -177 158 80 return
          </CharString>
          <CharString index="448">
            -321 195 60 callgsubr
            -272 -273 -135 vlineto
            20 27 13 33 41 vvcurveto
            return
          </CharString>
          <CharString index="449">
            132 47 165 -131 131 27 125 -125 331 -12 callsubr
            return
          </CharString>
          <CharString index="450">
            169 -76 25 vlineto
            163 -64 125 -204 -200 -72 -119 -169 vhcurveto
            -69 vlineto
            return
          </CharString>
          <CharString index="451">
            429 307 rmoveto
            -48 -22 37 46 hvcurveto
            181 144 -181 vlineto
            -45 -23 -38 -51 vhcurveto
            return
          </CharString>
          <CharString index="452">
            272 225 rmoveto
            -29 -21 17 28 31 25 17 34 hvcurveto
            46 -32 hlineto
            -33 -14 -28 -41 vhcurveto
            return
          </CharString>
          <CharString index="453">
            -166 -75 rlineto
            -144 vlineto
            166 78 rlineto
            endchar
          </CharString>
          <CharString index="454">
            -172 172 return
          </CharString>
          <CharString index="455">
            222 vlineto
            endchar
          </CharString>
          <CharString index="456">
            -132 604 callgsubr
            97 -83 143 154 548 callgsubr
            22 return
          </CharString>
          <CharString index="457">
            498 callsubr
            45 68 callsubr
            -11 483 return
          </CharString>
          <CharString index="458">
            161.5 vstem
            45 803 rmoveto
            14 -235 rlineto
            148 hlineto
            13 235 rlineto
            return
          </CharString>
          <CharString index="459">
            375 -97 rmoveto
            -49 -29 34 42 42 29 585 callsubr
            return
          </CharString>
          <CharString index="460">
            rmoveto
            371 callgsubr
            -125 203 -43 callsubr
            -999 -18 callgsubr
            return
          </CharString>
          <CharString index="461">
            -39 vlineto
            -24 -4 -23 -26 -12 vhcurveto
            38 -34 -50 21 -62 hhcurveto
            -115 -91 -57 -125 hvcurveto
            return
          </CharString>
          <CharString index="462">
            -22 -10 -21 -14 -39 hhcurveto
            -41 -31 17 59 -7 hvcurveto
            391 hlineto
            3 14 2 16 14 vvcurveto
            return
          </CharString>
          <CharString index="463">
            336 callgsubr
            -107 55 -77 84 -40 vhcurveto
            542 callsubr
            return
          </CharString>
          <CharString index="464">
            -45 47 66 -25 83 hhcurveto
            64 49 19 32 36 hvcurveto
            -114 142 callsubr
          </CharString>
          <CharString index="465">
            571 -91 callsubr
            -582 -18 callgsubr
            return
          </CharString>
          <CharString index="466">
            20 callgsubr
            vhcurveto
            return
          </CharString>
          <CharString index="467">
            143 -143 233 -51 51 -51 146 hstemhm
            return
          </CharString>
          <CharString index="468">
            675 -91 callsubr
            -686 -18 callgsubr
            return
          </CharString>
          <CharString index="469">
            -135 -101 372 callsubr
            -33 15 -28 hvcurveto
            return
          </CharString>
          <CharString index="470">
            60 25 -46 -42 -2 hvcurveto
            136 hlineto
            return
          </CharString>
          <CharString index="471">
            246 169 -690 -38 callsubr
            return
          </CharString>
          <CharString index="472">
            176 46 102 callsubr
            return
          </CharString>
          <CharString index="473">
            -140 0 184 196 184 return
          </CharString>
          <CharString index="474">
            232 81 callsubr
            return
          </CharString>
          <CharString index="475">
            423 callgsubr
            vhcurveto
            return
          </CharString>
          <CharString index="476">
            641 callgsubr
            145 return
          </CharString>
          <CharString index="477">
            -1 -10 0 -10 -10 vvcurveto
            return
          </CharString>
          <CharString index="478">
            -222 504 callgsubr
            return
          </CharString>
          <CharString index="479">
            -76 -130 -38 8 return
          </CharString>
          <CharString index="480">
            20 412 callgsubr
            return
          </CharString>
          <CharString index="481">
            -162 162 return
          </CharString>
          <CharString index="482">
            495 callsubr
            42 -50 callgsubr
            56 86 callsubr
            return
          </CharString>
          <CharString index="483">
            190 callgsubr
            -123 106 -63 125 89 65 25 46 43 vhcurveto
            -136 return
          </CharString>
          <CharString index="484">
            172 58 169 hstemhm
            42 207 135 196 98 86 callsubr
            return
          </CharString>
          <CharString index="485">
            -53 -40 -32 -63 -84 vvcurveto
            -157 104 -96 151 136 103 70 123 8 vhcurveto
            return
          </CharString>
          <CharString index="486">
            -43 callsubr
            -276 -430 hlineto
            -144 70 rlineto
            57 56 18 47 66 vvcurveto
            return
          </CharString>
          <CharString index="487">
            -400 163 -162 146 callgsubr
            139 callsubr
            return
          </CharString>
          <CharString index="488">
            rmoveto
            35 24 23 35 35 24 -23 -35 -35 -24 -23 -35 -35 -24 23 35 vhcurveto
            endchar
          </CharString>
          <CharString index="489">
            hhcurveto
            104 73 43 50 33 hvcurveto
            -165 vlineto
            endchar
          </CharString>
          <CharString index="490">
            142 -142 return
          </CharString>
          <CharString index="491">
            -21 564 -20 return
          </CharString>
          <CharString index="492">
            -1 -10 -11 0 -5 hhcurveto
            -40 -34 17 63 44 23 28 41 49 14 -43 -34 hvcurveto
            return
          </CharString>
          <CharString index="493">
            -2 -7 -9 0 -3 hhcurveto
            -30 -27 13 48 34 18 21 32 36 11 -32 -27 hvcurveto
            return
          </CharString>
          <CharString index="494">
            175 callgsubr
            42 207 135 196 116 return
          </CharString>
          <CharString index="495">
            -139 -80 -65 -99 120 callgsubr
            return
          </CharString>
          <CharString index="496">
            213 137 45 295 callsubr
            603 -550 168 220 157 return
          </CharString>
          <CharString index="497">
            115 callgsubr
            -66 callgsubr
            return
          </CharString>
          <CharString index="498">
            564 callgsubr
            -117 59 -83 91 -45 hvcurveto
            return
          </CharString>
          <CharString index="499">
            64 -98 rlineto
            205 hlineto
            -134 179 rlineto
            -271 hlineto
            -133 -179 rlineto
            return
          </CharString>
          <CharString index="500">
            309 callgsubr
            113 -136 -124 69 callgsubr
            return
          </CharString>
          <CharString index="501">
            480 callgsubr
            359 return
          </CharString>
          <CharString index="502">
            773 -110 hlineto
            -84 callsubr
            return
          </CharString>
          <CharString index="503">
            52 hlineto
            26 35 -15 -42 -28 -18 -25 -40 hvcurveto
            return
          </CharString>
          <CharString index="504">
            -31 vlineto
            -51 -14 -48 -114 vhcurveto
            -279 hlineto
            return
          </CharString>
          <CharString index="505">
            -169 271 callgsubr
            return
          </CharString>
          <CharString index="506">
            -13 20 35 -13 42 hhcurveto
            106 64 73 103 hvcurveto
            return
          </CharString>
          <CharString index="507">
            181 81 91 142 hvcurveto
            endchar
          </CharString>
          <CharString index="508">
            -150 -113 173 hlineto
            return
          </CharString>
          <CharString index="509">
            162 54 169 hstemhm
            42 return
          </CharString>
          <CharString index="510">
            223 549 callgsubr
            return
          </CharString>
          <CharString index="511">
            hhcurveto
            496 callsubr
            return
          </CharString>
          <CharString index="512">
            204 -43 callsubr
            return
          </CharString>
          <CharString index="513">
            571 rmoveto
            581 callgsubr
            return
          </CharString>
          <CharString index="514">
            -308 -89 callsubr
            return
          </CharString>
          <CharString index="515">
            182 -161 -21 return
          </CharString>
          <CharString index="516">
            280 -93 callgsubr
            return
          </CharString>
          <CharString index="517">
            -20 179 callsubr
            return
          </CharString>
          <CharString index="518">
            -169 303 return
          </CharString>
          <CharString index="519">
            187 vlineto
            endchar
          </CharString>
          <CharString index="520">
            0 203 -167 172 -167 162 102 166 -116 162 return
          </CharString>
          <CharString index="521">
            -399 172 -172 589 callsubr
            42 return
          </CharString>
          <CharString index="522">
            -29 callsubr
            20 225 return
          </CharString>
          <CharString index="523">
            -94 callsubr
            -97 callgsubr
            return
          </CharString>
          <CharString index="524">
            -139 28 93 -86 143 -60 callgsubr
            return
          </CharString>
          <CharString index="525">
            92 21 59 79 126 vvcurveto
            77 302 -94 vlineto
            20 -23 -32 12 -43 hhcurveto
            return
          </CharString>
          <CharString index="526">
            rmoveto
            -89 callgsubr
            return
          </CharString>
          <CharString index="527">
            178 hlineto
            141 8 -76 87 -146 hhcurveto
            -178 -41 -129 -103 hvcurveto
            return
          </CharString>
          <CharString index="528">
            0 187 -173 -21 384 return
          </CharString>
          <CharString index="529">
            -28 0 177 355 176 return
          </CharString>
          <CharString index="530">
            220 -199 -21 56 164 return
          </CharString>
          <CharString index="531">
            -562 196 432 204 return
          </CharString>
          <CharString index="532">
            -27 -22 -22 -28 -27 22 -22 27 return
          </CharString>
          <CharString index="533">
            hstemhm
            20 478 -475 465 return
          </CharString>
          <CharString index="534">
            -1 -8 0 -9 -9 vvcurveto
            return
          </CharString>
          <CharString index="535">
            82 19 -18 -91 60 hvcurveto
            return
          </CharString>
          <CharString index="536">
            152 111 151 return
          </CharString>
          <CharString index="537">
            rmoveto
            454 callsubr
            return
          </CharString>
          <CharString index="538">
            -179 204 return
          </CharString>
          <CharString index="539">
            -60 -114 vhcurveto
            return
          </CharString>
          <CharString index="540">
            160 169 return
          </CharString>
          <CharString index="541">
            hstemhm
            46 221 return
          </CharString>
          <CharString index="542">
            235 vlineto
            endchar
          </CharString>
          <CharString index="543" raw="1">
            f81ff734 1d0b  
          </CharString>
          <CharString index="544">
            171 -171 620 67 callgsubr
            return
          </CharString>
          <CharString index="545">
            18 36 34 23 19 30 34 17 -25 -28 1 hvcurveto
            -33 -21 -21 -31 vhcurveto
            return
          </CharString>
          <CharString index="546">
            289 callsubr
            57 204 return
          </CharString>
          <CharString index="547">
            480 callsubr
            540 callgsubr
            return
          </CharString>
          <CharString index="548">
            295 callsubr
            697 -640 548 callsubr
            111 187 return
          </CharString>
          <CharString index="549">
            187 144 -232 vlineto
            200 -339 rmoveto
            60 callgsubr
            return
          </CharString>
          <CharString index="550">
            153 hlineto
            115 11 -53 94 -110 hhcurveto
            -95 -42 -54 -59 -15 hvcurveto
            return
          </CharString>
          <CharString index="551">
            131 -67 104 -131 -59 -46 -19 -32 -31 vhcurveto
            109 vlineto
            endchar
          </CharString>
          <CharString index="552">
            -88 -5 -68 -30 -45 -48 rrcurveto
            -188 hlineto
            return
          </CharString>
          <CharString index="553">
            183 hlineto
            -2 9 -2 9 12 vvcurveto
            27 return
          </CharString>
          <CharString index="554">
            326 callsubr
            98 -61 return
          </CharString>
          <CharString index="555">
            259 callsubr
            207 return
          </CharString>
          <CharString index="556">
            -169 77 -571 -53 callsubr
            76 return
          </CharString>
          <CharString index="557">
            483 callsubr
            hvcurveto
            return
          </CharString>
          <CharString index="558">
            241 -241 259 -240 222 return
          </CharString>
          <CharString index="559">
            212 rmoveto
            121 callgsubr
            return
          </CharString>
          <CharString index="560">
            -160 106 -67 103 return
          </CharString>
          <CharString index="561">
            -156 -146 hlineto
            return
          </CharString>
          <CharString index="562">
            rmoveto
            28 -23 22 -28 return
          </CharString>
          <CharString index="563">
            26 16 36 hvcurveto
            38 return
          </CharString>
          <CharString index="564">
            161 75 204 return
          </CharString>
          <CharString index="565">
            108 19 31 82 return
          </CharString>
          <CharString index="566">
            -80 -278 vlineto
            return
          </CharString>
          <CharString index="567">
            -305 205 return
          </CharString>
          <CharString index="568">
            -135 -70 rlineto
            -122 345 125 -170 vlineto
            40 15 rlineto
            return
          </CharString>
          <CharString index="569" raw="1">
            f741c5f7 d30a0b  
          </CharString>
          <CharString index="570">
            -60 callsubr
            hvcurveto
            return
          </CharString>
          <CharString index="571">
            462 -44 -219 hlineto
            -105 -55 -54 -71 -53 27 -44 55 -27 hvcurveto
            return
          </CharString>
          <CharString index="572">
            -22 33 44 -12 59 hhcurveto
            148 78 94 134 4 hvcurveto
            68 hlineto
            return
          </CharString>
          <CharString index="573">
            -332 203 -203 606 -559 156 141 175 return
          </CharString>
          <CharString index="574">
            -176 hlineto
            -36 -21 -30 -42 -38 -25 28 39 43 30 27 55 vhcurveto
            return
          </CharString>
          <CharString index="575">
            162 83 169 hstemhm
            42 198 4 298 -185 185 return
          </CharString>
          <CharString index="576">
            -52 -14 -35 -31 return
          </CharString>
          <CharString index="577">
            -190 190 return
          </CharString>
          <CharString index="578">
            -9 -5 4 16 hvcurveto
            -172 hlineto
            -79 7 44 -54 149 hhcurveto
            return
          </CharString>
          <CharString index="579">
            202 callgsubr
            101 -69 hlineto
            -43 -4 -34 -16 -24 -25 rrcurveto
            return
          </CharString>
          <CharString index="580">
            131 13 -78 84 -126 hhcurveto
            -108 -54 -61 -67 -18 hvcurveto
            return
          </CharString>
          <CharString index="581">
            883 -91 callsubr
            -894 -169 614 -90 vlineto
            return
          </CharString>
          <CharString index="582">
            328 0 177 -80 167 16 167 85 176 hstemhm
            return
          </CharString>
          <CharString index="583">
            193 64 200 -118 187 -138 69 -69 193 return
          </CharString>
          <CharString index="584">
            hhcurveto
            115 560 callgsubr
            return
          </CharString>
          <CharString index="585">
            -123 -148 rlineto
            218 hlineto
            152 211 rlineto
            endchar
          </CharString>
          <CharString index="586">
            -127 98 -82 143 153 548 callgsubr
            endchar
          </CharString>
          <CharString index="587">
            -21 331 233 -233 237 return
          </CharString>
          <CharString index="588">
            -72 -68 -17 -36 -51 hvcurveto
            -218 hlineto
            return
          </CharString>
          <CharString index="589">
            543 callsubr
            hvcurveto
            return
          </CharString>
          <CharString index="590">
            272 610 callsubr
            return
          </CharString>
          <CharString index="591">
            149 -57 callsubr
            return
          </CharString>
          <CharString index="592">
            rmoveto
            50 37 37 48 50 -37 37 -50 return
          </CharString>
          <CharString index="593">
            429 callgsubr
            50 222 return
          </CharString>
          <CharString index="594">
            263 rmoveto
            -95 100 95 hlineto
            return
          </CharString>
          <CharString index="595">
            hlineto
            370 callsubr
            return
          </CharString>
          <CharString index="596">
            147 callgsubr
            hstemhm
            return
          </CharString>
          <CharString index="597">
            15 28 280 callsubr
            return
          </CharString>
          <CharString index="598">
            rmoveto
            -69 -40 36 43 -7 hvcurveto
            return
          </CharString>
          <CharString index="599">
            204 60 callgsubr
            return
          </CharString>
          <CharString index="600">
            -37 -57 -31 hvcurveto
            -3 hlineto
            return
          </CharString>
          <CharString index="601">
            -5 22 23 -3 25 hhcurveto
            return
          </CharString>
          <CharString index="602">
            174 83 169 hstemhm
            return
          </CharString>
          <CharString index="603">
            63 47 21 36 30 hvcurveto
            return
          </CharString>
          <CharString index="604">
            226 277 225 return
          </CharString>
          <CharString index="605">
            152 -142 142 return
          </CharString>
          <CharString index="606">
            34 -33 -47 18 -55 hhcurveto
            return
          </CharString>
          <CharString index="607">
            21 -21 36 172 return
          </CharString>
          <CharString index="608">
            -43 641 callsubr
            return
          </CharString>
          <CharString index="609">
            384 callgsubr
            hstemhm
            return
          </CharString>
          <CharString index="610">
            vhcurveto
            147 callsubr
            return
          </CharString>
          <CharString index="611">
            rmoveto
            108 hlineto
            return
          </CharString>
          <CharString index="612">
            -166 166 return
          </CharString>
          <CharString index="613">
            340 565 callsubr
            return
          </CharString>
          <CharString index="614">
            169 hstemhm
            42 207 135 196 116 203 return
          </CharString>
          <CharString index="615">
            -880 411 callsubr
            -129 hlineto
            -25 -3 -30 -29 vhcurveto
            return
          </CharString>
          <CharString index="616">
            597 callgsubr
            vhcurveto
            -85 vlineto
            return
          </CharString>
          <CharString index="617">
            192 callsubr
            307 27 168 3 197 -197 return
          </CharString>
          <CharString index="618">
            -174 -23 hlineto
            -29 -21 -12 -29 vhcurveto
            -124 112 hlineto
            return
          </CharString>
          <CharString index="619">
            -20 hstem
            50 222 vstem
            539 callsubr
            return
          </CharString>
          <CharString index="620">
            125 -111 209 -155 155 -49 126 hstemhm
            return
          </CharString>
          <CharString index="621">
            -68 callsubr
            hvcurveto
            88 490 callgsubr
            return
          </CharString>
          <CharString index="622">
            vlineto
            528 callsubr
            return
          </CharString>
          <CharString index="623">
            205 hlineto
            -109 145 rlineto
            53 32 29 51 66 vvcurveto
            return
          </CharString>
          <CharString index="624">
            rmoveto
            -47 -297 rlineto
            140 hlineto
            103 297 rlineto
            endchar
          </CharString>
          <CharString index="625">
            -740 222 740 vlineto
            endchar
          </CharString>
          <CharString index="626">
            33 51 27 vhcurveto
            return
          </CharString>
          <CharString index="627">
            -42 -47 7 36 return
          </CharString>
          <CharString index="628">
            -169 335 return
          </CharString>
          <CharString index="629">
            -18 callgsubr
            endchar
          </CharString>
          <CharString index="630">
            562 callgsubr
            vhcurveto
            return
          </CharString>
          <CharString index="631">
            -389 -366 rlineto
            234 hlineto
            160 161 rlineto
            return
          </CharString>
          <CharString index="632">
            hstem
            66 204 vstem
            270 hmoveto
            -43 callsubr
            return
          </CharString>
          <CharString index="633">
            23 -20 27 36 vvcurveto
            367 -573 rmoveto
            187 hlineto
            return
          </CharString>
          <CharString index="634">
            182 -182 437 -192 192 53 204 return
          </CharString>
          <CharString index="635">
            -56 callgsubr
            189 callsubr
            vhcurveto
            return
          </CharString>
          <CharString index="636">
            455 callgsubr
            176 -160 260 callsubr
            return
          </CharString>
          <CharString index="637">
            0 792 -771 384 callsubr
            76 172 hstemhm
            return
          </CharString>
          <CharString index="638">
            303 callsubr
            -11 419 return
          </CharString>
          <CharString index="639">
            271 callsubr
            41 17 -31 -31 return
          </CharString>
          <CharString index="640">
            69 245 callgsubr
            return
          </CharString>
          <CharString index="641">
            650 hmoveto
            299 93 vlineto
            27 27 3 8 27 hvcurveto
            return
          </CharString>
          <CharString index="642">
            274 360 rmoveto
            20 15 8 19 vhcurveto
            167 hlineto
            return
          </CharString>
          <CharString index="643">
            384 callsubr
            65 220 hstemhm
            34 255 -239 return
          </CharString>
          <CharString index="644">
            -21 -54 30 hlineto
            18 9 -6 -19 -17 -6 -4 -7 hvcurveto
            return
          </CharString>
          <CharString index="645">
            -114 -51 -80 -96 -42 8 -46 18 -47 hvcurveto
            endchar
          </CharString>
          <CharString index="646">
            50 547 callsubr
            222 return
          </CharString>
          <CharString index="647">
            205 16 181 105 202 return
          </CharString>
          <CharString index="648">
            -134 5 83 -94 165 hhcurveto
            return
          </CharString>
          <CharString index="649">
            -111 -149 rlineto
            204 hlineto
            return
          </CharString>
          <CharString index="650">
            520 callsubr
            34 33 10 42 return
          </CharString>
          <CharString index="651">
            -169 -10 -95 -103 -140 vvcurveto
            return
          </CharString>
          <CharString index="652">
            487 callgsubr
            -11 return
          </CharString>
          <CharString index="653">
            -43 callgsubr
            endchar
          </CharString>
          <CharString index="654">
            740 rmoveto
            -740 return
          </CharString>
          <CharString index="655">
            204 -63 201 return
          </CharString>
          <CharString index="656">
            rmoveto
            51 123 return
          </CharString>
          <CharString index="657">
            -67 -24 45 61 return
          </CharString>
          <CharString index="658">
            -221 -327 return
          </CharString>
          <CharString index="659">
            -54 37 -90 hhcurveto
            return
          </CharString>
          <CharString index="660">
            rmoveto
            177 vlineto
            return
          </CharString>
          <CharString index="661">
            -152 125 -51 114 40 41 5 13 42 return
          </CharString>
          <CharString index="662">
            57 -31 -55 37 -90 hhcurveto
            -47 -48 -15 -32 -38 hvcurveto
            return
          </CharString>
          <CharString index="663">
            -47 -39 -25 -58 -64 vvcurveto
            -112 72 -100 134 return
          </CharString>
          <CharString index="664">
            -57 callgsubr
            404 52 -93 callgsubr
            return
          </CharString>
          <CharString index="665">
            115 -88 79 -145 -143 -86 -83 -109 return
          </CharString>
          <CharString index="666">
            134 -134 156 136 295 callsubr
            return
          </CharString>
          <CharString index="667">
            446 callsubr
            15 13 return
          </CharString>
          <CharString index="668">
            105 67 35 68 41 -22 26 -62 14 hvcurveto
            4 vlineto
            return
          </CharString>
          <CharString index="669">
            99 37 41 32 48 vvcurveto
            49 -41 59 -119 vhcurveto
            return
          </CharString>
          <CharString index="670">
            -14 vlineto
            -17 -8 -17 -22 -22 -8 18 18 vhcurveto
            79 return
          </CharString>
          <CharString index="671">
            343 -37 -7 hlineto
            -153 -113 -88 -151 return
          </CharString>
          <CharString index="672">
            307 rmoveto
            -55 -24 42 52 hvcurveto
            170 161 return
          </CharString>
          <CharString index="673">
            47 callgsubr
            42 return
          </CharString>
          <CharString index="674">
            -749 -78 callgsubr
            214 return
          </CharString>
          <CharString index="675">
            196 -175 -21 45 151 -151 262 return
          </CharString>
          <CharString index="676">
            59 hlineto
            428 callsubr
            -86 -38 callsubr
            return
          </CharString>
          <CharString index="677">
            171 247 callsubr
            161 167 return
          </CharString>
          <CharString index="678">
            7 23 5 25 28 vvcurveto
            135 -92 55 -88 vhcurveto
            return
          </CharString>
          <CharString index="679">
            637 callgsubr
            endchar
          </CharString>
          <CharString index="680">
            124 -66 136 vhcurveto
            return
          </CharString>
          <CharString index="681">
            169 hstemhm
            37 205 return
          </CharString>
          <CharString index="682">
            249 -228 -21 95 return
          </CharString>
          <CharString index="683">
            0 253 callsubr
            return
          </CharString>
          <CharString index="684">
            -1 9 11 -1 10 hhcurveto
            return
          </CharString>
          <CharString index="685">
            -13 vlineto
            -18 -9 -17 -22 return
          </CharString>
          <CharString index="686">
            201 callgsubr
            hstemhm
            return
          </CharString>
          <CharString index="687">
            472 177 return
          </CharString>
          <CharString index="688">
            -158 165 return
          </CharString>
          <CharString index="689">
            132 48 91 96 56 -16 57 -25 41 hvcurveto
            return
          </CharString>
          <CharString index="690">
            -9 20 -6 21 19 vvcurveto
            29 13 22 31 vhcurveto
            return
          </CharString>
          <CharString index="691">
            240 callgsubr
            432 callgsubr
            return
          </CharString>
          <CharString index="692">
            34 49 47 169 callgsubr
            -47 hvcurveto
            return
          </CharString>
          <CharString index="693">
            -325 238 43 86 callgsubr
            return
          </CharString>
          <CharString index="694">
            hmoveto
            571 72 169 -276 -355 vlineto
            return
          </CharString>
          <CharString index="695">
            36 vlineto
            34 14 43 49 36 22 -26 -42 vhcurveto
            return
          </CharString>
          <CharString index="696">
            399 -385 385 -98 callsubr
            return
          </CharString>
          <CharString index="697">
            -163 -88 -119 -164 hvcurveto
            204 hlineto
            return
          </CharString>
          <CharString index="698" raw="1">
            731dd50b   
          </CharString>
          <CharString index="699">
            191 callsubr
            -281 -296 vlineto
            return
          </CharString>
          <CharString index="700">
            -161 125 431 hstem
            20 457 vstem
            return
          </CharString>
          <CharString index="701">
            -105 -78 -49 -96 -109 87 -41 137 hvcurveto
            return
          </CharString>
          <CharString index="702">
            -67 hlineto
            469 callsubr
            -22 -41 rrcurveto
            -4 hlineto
            return
          </CharString>
          <CharString index="703">
            40 26 -25 -37 1 hvcurveto
            -63 callgsubr
            return
          </CharString>
          <CharString index="704">
            209 -165 163 -153 155 hstemhm
            return
          </CharString>
          <CharString index="705">
            474 -117 hlineto
            35 -37 -50 21 -68 hhcurveto
            return
          </CharString>
          <CharString index="706">
            hlineto
            14 34 7 37 36 vvcurveto
            26 vlineto
            endchar
          </CharString>
          <CharString index="707">
            169 -915 -38 callsubr
            return
          </CharString>
          <CharString index="708">
            -4 -14 -45 -11 -45 hhcurveto
            -31 return
          </CharString>
          <CharString index="709">
            -130 -103 -107 -182 hvcurveto
            return
          </CharString>
          <CharString index="710">
            495 callgsubr
            hvcurveto
            return
          </CharString>
          <CharString index="711">
            rmoveto
            60 callgsubr
            vlineto
            return
          </CharString>
          <CharString index="712">
            -95 284 -284 835 return
          </CharString>
          <CharString index="713">
            129 -93 109 -188 return
          </CharString>
          <CharString index="714">
            -314 -53 callsubr
            hlineto
            return
          </CharString>
          <CharString index="715">
            vvcurveto
            404 51 -93 callgsubr
            return
          </CharString>
          <CharString index="716">
            169 642 callgsubr
            hstemhm
            return
          </CharString>
          <CharString index="717">
            208 rmoveto
            -27 -21 15 33 return
          </CharString>
          <CharString index="718">
            164 -84 171 return
          </CharString>
          <CharString index="719">
            -282 227 46 return
          </CharString>
          <CharString index="720">
            181 105 203 return
          </CharString>
          <CharString index="721">
            168 87 163 return
          </CharString>
          <CharString index="722">
            -189 227 -38 return
          </CharString>
          <CharString index="723">
            -15 -2 -17 -18 vvcurveto
            return
          </CharString>
          <CharString index="724">
            -9 175 -166 return
          </CharString>
          <CharString index="725">
            222 -222 return
          </CharString>
          <CharString index="726">
            181 -181 return
          </CharString>
          <CharString index="727">
            -227 227 return
          </CharString>
          <CharString index="728">
            -63 -55 -19 -34 -42 hvcurveto
            -168 100 hlineto
            return
          </CharString>
          <CharString index="729">
            202 -53 205 17 179 113 return
          </CharString>
          <CharString index="730">
            91 -57 callsubr
            -121 return
          </CharString>
          <CharString index="731">
            -75 41 78 -31 93 hhcurveto
            44 159 hlineto
            return
          </CharString>
          <CharString index="732">
            169 -112 151 hstemhm
            72 179 return
          </CharString>
          <CharString index="733">
            -273 -127 vlineto
            349 268 rmoveto
            return
          </CharString>
          <CharString index="734">
            95 146 hvcurveto
            28 95 460 callsubr
            return
          </CharString>
          <CharString index="735">
            347 291 rmoveto
            -64 -29 42 62 hvcurveto
            return
          </CharString>
          <CharString index="736">
            619 callsubr
            561 -523 143 return
          </CharString>
          <CharString index="737">
            618 callsubr
            223 callsubr
            return
          </CharString>
          <CharString index="738">
            102 callsubr
            -435 166 return
          </CharString>
          <CharString index="739">
            -122 78 -59 102 103 76 59 122 return
          </CharString>
          <CharString index="740">
            -6 callgsubr
            239 -233 233 return
          </CharString>
          <CharString index="741">
            455 callsubr
            -27 -22 -22 -28 vhcurveto
            return
          </CharString>
          <CharString index="742">
            6 vvcurveto
            20 15 8 19 vhcurveto
            167 hlineto
            return
          </CharString>
          <CharString index="743">
            -62 -41 -52 -85 -62 -55 27 55 -6 vhcurveto
            return
          </CharString>
          <CharString index="744">
            hhcurveto
            482 callsubr
            return
          </CharString>
          <CharString index="745">
            227 -219 616 callgsubr
            hstemhm
            return
          </CharString>
          <CharString index="746">
            191 175 hlineto
            endchar
          </CharString>
          <CharString index="747">
            214 -214 return
          </CharString>
          <CharString index="748">
            -19 -33 -28 hvcurveto
            return
          </CharString>
          <CharString index="749">
            520 rmoveto
            51 return
          </CharString>
          <CharString index="750">
            199 -199 return
          </CharString>
        <CharString name=".notdef">
          -158 0 50 600 50 hstem
          0 50 400 50 vstem
          0 vmoveto
          500 700 -500 hlineto
          250 -305 rmoveto
          -170 255 rlineto
          340 hlineto
          -140 -300 rmoveto
          170 255 rlineto
          -510 vlineto
          -370 -45 rmoveto
          170 255 170 -255 rlineto
          -370 555 rmoveto
          170 -255 -170 -255 rlineto
          endchar
        </CharString>
        <CharString name="A">
          101 callsubr
          hstemhm
          0 773 -2 callgsubr
          hintmask 10100000
          -54 167 70 callsubr
        </CharString>
        <CharString name="AE">
          475 callsubr
          490 618 callsubr
          432 -432 462 hintmask 10111000
          490 537 rmoveto
          hintmask 01111000
          626 callsubr
          hintmask 10110010
          477 callgsubr
          hintmask 01111000
          45 97 rlineto
          204 hlineto
          hintmask 10111000
          -97 vlineto
          hintmask 10110010
          462 177 hlineto
          hintmask 10111000
          -240 103 hlineto
          hintmask 10110100
          210 167 hlineto
          hintmask 10111000
          -210 hlineto
          endchar
        </CharString>
        <CharString name="Aacute">
          101 callsubr
          hstemhm
          256 259 -2 callgsubr
          11 900 -86 callgsubr
          hintmask 10100000
          -65 -569 70 callsubr
        </CharString>
        <CharString name="Abreve">
          101 callsubr
          39 489 callsubr
          199 103 170 103 hintmask 10101100
          539 hmoveto
          234 hlineto
          hintmask 01101100
          140 callsubr
          hintmask 10101100
          111 callgsubr
          hintmask 01101100
          246 callsubr
          71 843 rmoveto
          hintmask 10011100
          17 -103 vlineto
          hintmask 10101100
          253 callgsubr
          hintmask 10011100
          45 callsubr
          hintmask 10101100
          187 callgsubr
          hintmask 01101100
          105 83 65 138 hvcurveto
          hintmask 10101100
          -125 -676 70 callsubr
        </CharString>
        <CharString name="Acircumflex">
          101 callsubr
          hstemhm
          221 331 -2 callgsubr
          48 642 -72 callsubr
          hintmask 10100000
          63 -553 70 callsubr
        </CharString>
        <CharString name="Adieresis">
          101 callsubr
          59 172 hstemhm
          188 295 callgsubr
          hintmask 10111000
          539 hmoveto
          234 hlineto
          hintmask 01111000
          140 callsubr
          hintmask 10111000
          111 callgsubr
          hintmask 01111000
          246 callsubr
          -231 660 rmoveto
          -104 callsubr
          225 hmoveto
          -104 callsubr
          hintmask 10111000
          -48 -493 70 callsubr
        </CharString>
        <CharString name="Agrave">
          101 callsubr
          hstemhm
          256 259 -2 callgsubr
          -248 900 20 callsubr
          hintmask 10100000
          -65 -623 70 callsubr
        </CharString>
        <CharString name="Amacron">
          101 callsubr
          61 147 hstemhm
          172 431 hintmask 10110000
          539 hmoveto
          234 hlineto
          hintmask 01110000
          140 callsubr
          hintmask 10110000
          111 callgsubr
          hintmask 01110000
          246 callsubr
          -332 809 112 callsubr
          hintmask 10110000
          -153 -642 70 callsubr
        </CharString>
        <CharString name="Aogonek">
          115 -223 116 128 -21 107 167 620 callgsubr
          hstemhm
          499 497 callgsubr
          hintmask 11010100
          515 708 rmoveto
          -256 hlineto
          111 callgsubr
          246 callsubr
          35 -107 rlineto
          -30 -30 -10 -31 -36 vvcurveto
          -80 60 -46 100 43 38 6 10 33 vhcurveto
          116 vlineto
          hintmask 11101000
          -11 -33 -27 -5 -22 hhcurveto
          -24 -13 9 16 16 12 20 63 27 hvcurveto
          44 19 rlineto
          -323 274 70 callsubr
        </CharString>
        <CharString name="Aring">
          101 callsubr
          32 85 94 85 hstemhm
          255 86 92 86 hintmask 10111100
          539 hmoveto
          234 hlineto
          hintmask 01111100
          140 callsubr
          hintmask 10111100
          111 callgsubr
          hintmask 01111100
          246 callsubr
          -71 765 rmoveto
          -28 -20 -19 -26 -26 -20 19 28 29 20 18 26 26 20 -18 -29 vhcurveto
          86 hmoveto
          82 -59 50 -73 -73 -59 -50 -82 -82 59 -50 73 73 59 50 82 vhcurveto
          hintmask 10111100
          -69 -598 70 callsubr
        </CharString>
        <CharString name="Atilde">
          101 callsubr
          41 -29 callsubr
          0 773 hintmask 10001010
          539 hmoveto
          234 hlineto
          hintmask 01001010
          140 callsubr
          hintmask 10001010
          111 callgsubr
          hintmask 01100010
          246 callsubr
          -351 642 504 callsubr
          hintmask 10000110
          116 callgsubr
          hintmask 10001010
          -52 callsubr
          hintmask 10010010
          131 callsubr
          hintmask 10100010
          224 callgsubr
          hintmask 01100010
          -82 -57 -48 -128 -22 hvcurveto
          hintmask 10001010
          297 -475 70 callsubr
        </CharString>
        <CharString name="B">
          26 0 178 100 154 100 176 134 callgsubr
          145 226 -211 227 hintmask 11110100
          432 227 rmoveto
          -35 -19 -14 -40 vhcurveto
          -101 100 101 hlineto
          40 19 -17 -34 hvcurveto
          hintmask 11111000
          -15 254 rmoveto
          -34 -19 -15 -40 vhcurveto
          -86 100 86 hlineto
          40 19 -16 -35 hvcurveto
          hintmask 11110100
          242 -287 rmoveto
          79 -48 69 -87 21 vhcurveto
          hintmask 11111000
          70 18 49 58 85 vvcurveto
          123 -91 61 -141 vhcurveto
          -361 -708 371 hlineto
          hintmask 11110100
          154 84 70 124 hvcurveto
          endchar
        </CharString>
        <CharString name="C">
          145 callsubr
          643 callgsubr
          -41 callsubr
          endchar
        </CharString>
        <CharString name="CR">
          -488 endchar
        </CharString>
        <CharString name="Cacute">
          145 callsubr
          643 callgsubr
          -9 259 -41 callsubr
          hintmask 01100100
          475 652 -86 callgsubr
          endchar
        </CharString>
        <CharString name="Ccaron">
          145 callsubr
          643 callgsubr
          -44 331 -41 callsubr
          hintmask 01100100
          512 613 -84 callgsubr
        </CharString>
        <CharString name="Ccedilla">
          95 499 callgsubr
          -100 334 -334 408 -254 -21 22 -21 436 279 -205 205 643 callgsubr
          3 236 callgsubr
          -147 147 hintmask 1100011010100000
          30 355 rmoveto
          hintmask 1100101010100000
          -192 110 -140 183 -24 vhcurveto
          -133 vlineto
          hintmask 1100011010001000
          98 callsubr
          hintmask 1100011001000000
          401 callsubr
          hintmask 1100011010010000
          502 callgsubr
          hintmask 1100011010100000
          503 callgsubr
          34 -5 vlineto
          hintmask 1001001010100000
          151 23 101 105 25 146 rrcurveto
          -234 hlineto
          hintmask 1010000110100000
          -47 -21 -42 -27 -50 hhcurveto
          -75 -46 61 94 94 46 61 75 hvcurveto
          hintmask 1100011010100000
          50 42 -27 -47 21 hvcurveto
          234 hlineto
          167 -29 -127 112 -187 hhcurveto
          -217 -133 -149 -211 hvcurveto
          endchar
        </CharString>
        <CharString name="Cdotaccent">
          145 callsubr
          52 172 643 callgsubr
          35 172 hintmask 01101110
          30 355 rmoveto
          -211 133 -149 217 187 127 112 167 29 vhcurveto
          -234 hlineto
          hintmask 10011110
          -47 -21 -42 -27 -50 hhcurveto
          -75 -46 61 94 94 46 61 75 hvcurveto
          hintmask 01101110
          50 42 -27 -47 21 hvcurveto
          234 hlineto
          167 -29 -127 112 -187 hhcurveto
          -217 -133 -149 -211 hvcurveto
          345 412 rmoveto
          -104 callsubr
          endchar
        </CharString>
        <CharString name="D">
          85 0 198 316 194 hstem
          50 222 216 225 vstem
          345 708 rmoveto
          -295 -708 39 callgsubr
          316 538 callgsubr
        </CharString>
        <CharString name="Dcaron">
          85 0 198 316 194 134 callgsubr
          -79 331 -36 225 hintmask 11101000
          345 708 rmoveto
          -295 -708 39 callgsubr
          316 268 callgsubr
          hintmask 11010000
          199 770 -84 callgsubr
        </CharString>
        <CharString name="Dcroat">
          12 callsubr
        </CharString>
        <CharString name="E">
          -102 0 36 callsubr
          -27 callsubr
          endchar
        </CharString>
        <CharString name="Eacute">
          -102 0 36 callsubr
          -371 259 -27 callsubr
          hintmask 11100010
          138 476 -86 callgsubr
          endchar
        </CharString>
        <CharString name="Ebreve">
          173 callgsubr
          39 489 callsubr
          50 630 callsubr
          -428 103 170 103 143 callsubr
          hintmask 1111010001000000
          -220 87 hlineto
          198 419 rmoveto
          hintmask 1110110001000000
          17 -103 vlineto
          hintmask 1111010001000000
          253 callgsubr
          hintmask 1110100010000000
          45 callsubr
          hintmask 1111000010000000
          187 callgsubr
          hintmask 1111010001000000
          155 callgsubr
        </CharString>
        <CharString name="Ecaron">
          -102 0 36 callsubr
          -406 331 -27 callsubr
          hintmask 11100010
          175 437 -84 callgsubr
        </CharString>
        <CharString name="Ecircumflex">
          -102 0 36 callsubr
          -406 331 -27 callsubr
          hintmask 11100010
          175 218 -72 callsubr
          endchar
        </CharString>
        <CharString name="Edieresis">
          173 callgsubr
          59 172 hstemhm
          50 205 -205 630 callsubr
          -439 295 callgsubr
          143 callsubr
          hintmask 1110010000000000
          -220 87 hlineto
          hintmask 1111100000000000
          -104 236 485 callsubr
          hvcurveto
          hintmask 1111000010000000
          -48 -37 -37 -50 hvcurveto
          hintmask 1111100000000000
          -48 37 -37 48 vhcurveto
          hintmask 1111010001000000
          346 callgsubr
        </CharString>
        <CharString name="Edotaccent">
          173 callgsubr
          59 172 hstemhm
          50 630 callsubr
          -327 172 hintmask 11100010
          111 callsubr
          hintmask 11101000
          -472 -708 hlineto
          hintmask 11100010
          408 callgsubr
          hintmask 11101000
          -250 100 hlineto
          hintmask 11100100
          337 callsubr
          hintmask 11101000
          -220 87 hlineto
          hintmask 11110001
          8 236 rmoveto
          -104 callsubr
          endchar
        </CharString>
        <CharString name="Egrave">
          173 callgsubr
          59 callgsubr
          360 -360 223 callsubr
          -371 259 hintmask 11100010
          111 callsubr
          hintmask 11110000
          -472 -708 hlineto
          hintmask 11100010
          408 callgsubr
          hintmask 11110000
          -250 100 hlineto
          hintmask 11100100
          337 callsubr
          hintmask 11110000
          -220 87 hlineto
          hintmask 11100001
          -121 476 rmoveto
          -164 vlineto
          hintmask 11101000
          305 callsubr
        </CharString>
        <CharString name="Emacron">
          173 callgsubr
          61 147 hstemhm
          50 630 callsubr
          -455 431 hintmask 11110010
          111 callsubr
          hintmask 11111000
          -472 -708 hlineto
          hintmask 11110010
          408 callgsubr
          hintmask 11111000
          -250 100 hlineto
          hintmask 11110100
          337 callsubr
          hintmask 11111000
          -220 87 hlineto
          hintmask 11110001
          -205 385 112 callsubr
          endchar
        </CharString>
        <CharString name="Eogonek">
          -102 -223 116 107 36 callsubr
          -274 497 callgsubr
          hintmask 0111001000000000
          111 callsubr
          hintmask 0111100000000000
          -472 -708 hlineto
          hintmask 1111000010000000
          249 hlineto
          -39 -33 -12 -33 -37 578 callgsubr
          hintmask 1111001000000000
          42 38 6 10 33 hvcurveto
          116 vlineto
          hintmask 1111000100000000
          -13 callgsubr
          hintmask 0111001000000000
          43 21 rlineto
          177 vlineto
          hintmask 0111100000000000
          -250 100 hlineto
          hintmask 0111010000000000
          337 callsubr
          hintmask 0111100000000000
          -220 87 hlineto
          endchar
        </CharString>
        <CharString name="Eth">
          12 callsubr
        </CharString>
        <CharString name="Euro">
          132 -5 205 44 30 -30 99 28 100 -35 35 39 205 hstemhm
          15 277 -277 436 -384 384 hintmask 1010010010000000
          67 355 rmoveto
          -4 0 -4 -4 vvcurveto
          hintmask 1010010100000000
          -52 -99 66 hlineto
          -150 39 120 -99 177 hhcurveto
          hintmask 1100010100000000
          187 127 112 167 29 hvcurveto
          -234 hlineto
          -47 -21 -42 -27 -50 hhcurveto
          hintmask 1010010100000000
          -38 -31 16 28 -21 hvcurveto
          128 99 hlineto
          hintmask 1010011000000000
          -159 hlineto
          hintmask 1011011000000000
          4 0 4 4 6 0 5 5 vvcurveto
          hintmask 1011010100000000
          159 100 -124 hlineto
          25 21 29 14 36 hhcurveto
          hintmask 1010110100000000
          50 42 -27 -47 21 hvcurveto
          234 hlineto
          167 -29 -127 112 -187 hhcurveto
          hintmask 1011010100000000
          -175 -120 -96 -148 -40 hvcurveto
          -67 -100 hlineto
          hintmask 1011010010000000
          52 hlineto
          hintmask 1010010010000000
          -5 0 -6 -5 vvcurveto
          endchar
        </CharString>
        <CharString name="F">
          -83 21 -21 267 167 98 176 59 callgsubr
          422 -422 500 hintmask 11110000
          50 708 rmoveto
          -708 222 267 vlineto
          hintmask 11101000
          200 167 hlineto
          hintmask 11110000
          -200 98 hlineto
          hintmask 11100100
          278 176 hlineto
          endchar
        </CharString>
        <CharString name="G">
          94 -5 245 callsubr
          643 callgsubr
          106 361 hintmask 11101100
          718 466 -52 callgsubr
          hintmask 11011100
          94 48 61 86 vhcurveto
          hintmask 11101100
          577 callgsubr
          endchar
        </CharString>
        <CharString name="Gbreve">
          94 -5 245 callsubr
          32 489 callsubr
          30 225 -66 103 69 361 -260 103 hintmask 1110001010000000
          718 466 -52 callgsubr
          hintmask 1101001010000000
          94 48 61 86 vhcurveto
          hintmask 1110101001000000
          577 callgsubr
          81 484 rmoveto
          hintmask 1110011001000000
          17 -103 vlineto
          hintmask 1110101001000000
          253 callgsubr
          hintmask 1110010110000000
          45 callsubr
          hintmask 1110100110000000
          187 callgsubr
          hintmask 1110101001000000
          155 callgsubr
        </CharString>
        <CharString name="Gdotaccent">
          94 -5 245 callsubr
          52 172 643 callgsubr
          35 172 -101 361 hintmask 11100101
          718 466 -52 callgsubr
          hintmask 11010101
          94 48 61 86 vhcurveto
          hintmask 11101110
          577 callgsubr
          -109 301 rmoveto
          -104 callsubr
          endchar
        </CharString>
        <CharString name="H">
          97 0 453 -177 432 134 callgsubr
          211 222 hintmask 01110000
          483 708 rmoveto
          hintmask 10110000
          -255 -211 vlineto
          hintmask 01110000
          255 -222 vlineto
          hintmask 10110000
          -708 222 vlineto
          hintmask 01110000
          276 211 vlineto
          hintmask 10110000
          -276 222 vlineto
          hintmask 01110000
          708 vlineto
          endchar
        </CharString>
        <CharString name="I">
          -336 486 callsubr
          vstem
          46 callsubr
          endchar
        </CharString>
        <CharString name="Iacute">
          333 callgsubr
          hstemhm
          31 451 callsubr
          hintmask 11001000
          46 callsubr
          hintmask 11010000
          18 299 385 callgsubr
        </CharString>
        <CharString name="Icircumflex">
          333 callgsubr
          hstemhm
          -4 276 -222 618 callsubr
          277 hintmask 11010000
          46 callsubr
          hintmask 11001000
          55 41 rmoveto
          144 vlineto
          -165 75 rlineto
          hintmask 11100000
          346 callsubr
        </CharString>
        <CharString name="Idieresis">
          333 callgsubr
          79 172 hstemhm
          -37 569 callgsubr
          hintmask 11100100
          46 callsubr
          hintmask 11101000
          -224 584 callgsubr
          hintmask 11110000
          -48 -37 -37 -50 hvcurveto
          hintmask 11101000
          -48 37 -37 48 vhcurveto
          hintmask 11100010
          225 hmoveto
          hintmask 11100001
          50 37 37 48 50 -37 37 -50 hvcurveto
          hintmask 11100010
          -48 -37 -37 -50 -48 37 -37 48 hvcurveto
          endchar
        </CharString>
        <CharString name="Idotaccent">
          333 callgsubr
          79 172 hstemhm
          50 197 -197 222 519 callgsubr
          hintmask 11101000
          46 callsubr
          hintmask 11110000
          -112 584 callgsubr
          hintmask 11100100
          -48 -37 -37 -50 hvcurveto
          hintmask 11110000
          640 callgsubr
        </CharString>
        <CharString name="Igrave">
          333 callgsubr
          hstemhm
          31 259 -240 618 callsubr
          240 hintmask 11010000
          46 callsubr
          hintmask 11100000
          -241 299 rmoveto
          -164 vlineto
          hintmask 11001000
          305 callsubr
        </CharString>
        <CharString name="Imacron">
          333 callgsubr
          81 147 hstemhm
          -53 325 -222 618 callsubr
          328 hintmask 11101000
          46 callsubr
          hintmask 11110000
          -325 208 rmoveto
          -147 vlineto
          hintmask 11100100
          431 147 hlineto
          endchar
        </CharString>
        <CharString name="Iogonek">
          -336 -223 116 -116 931 -687 310 callsubr
          hstemhm
          50 103 -103 222 hintmask 10110100
          50 708 rmoveto
          -707 vlineto
          -39 -33 -13 -34 -37 vvcurveto
          hintmask 01000100
          236 callsubr
          hintmask 10110100
          116 vlineto
          hintmask 10111000
          -13 callgsubr
          hintmask 10110100
          43 21 rlineto
          708 vlineto
          endchar
        </CharString>
        <CharString name="Itilde">
          -336 287 callgsubr
          50 222 hintmask 01100101
          46 callsubr
          hintmask 01110001
          -344 41 -6 callsubr
        </CharString>
        <CharString name="J">
          -68 -7 200 -200 278 437 -20 hstemhm
          10 219 94 221 hintmask 01101000
          323 708 rmoveto
          hintmask 10101000
          -457 vlineto
          -46 -18 -12 -24 vhcurveto
          hintmask 01111000
          -29 -23 16 62 hvcurveto
          -219 hlineto
          -186 115 -92 166 156 97 85 173 vhcurveto
          457 vlineto
          endchar
        </CharString>
        <CharString name="K">
          97 486 callsubr
          vstem
          475 708 rmoveto
          193 callsubr
        </CharString>
        <CharString name="L">
          -152 0 168 540 -20 59 callgsubr
          436 296 callgsubr
          endchar
        </CharString>
        <CharString name="Lacute">
          -152 0 168 540 -20 59 callgsubr
          436 -386 3 callgsubr
          259 296 callgsubr
          hintmask 11000100
          87 839 rmoveto
          hintmask 11001000
          -259 -110 rlineto
          -148 vlineto
          hintmask 11000100
          580 callgsubr
        </CharString>
        <CharString name="Lcaron">
          -81 0 168 229 79 86 146 59 callgsubr
          436 -117 307 callsubr
          hintmask 11110100
          525 708 430 callsubr
          hintmask 11110010
          235 callsubr
          hintmask 11110100
          199 callgsubr
          -253 hmoveto
          -222 -708 hlineto
          hintmask 11101000
          436 168 hlineto
          hintmask 11110100
          -214 hlineto
          endchar
        </CharString>
        <CharString name="Ldot">
          -152 0 168 159 172 209 -20 59 callgsubr
          436 -157 172 hintmask 11110000
          50 hmoveto
          hintmask 11101000
          436 168 hlineto
          hintmask 11110100
          -214 540 -222 hlineto
          364 -381 rmoveto
          -104 callsubr
          endchar
        </CharString>
        <CharString name="Lslash">
          -137 0 168 540 -20 hstem
          65 222 vstem
          287 708 rmoveto
          -222 -256 hlineto
          -55 -15 rlineto
          -196 vlineto
          55 15 rlineto
          -256 436 168 -214 149 vlineto
          75 21 rlineto
          196 vlineto
          -75 -21 rlineto
          endchar
        </CharString>
        <CharString name="M">
          293 486 callsubr
          408 221 vstem
          50 708 rmoveto
          -708 222 353 vlineto
          109 -353 rlineto
          190 hlineto
          109 353 rlineto
          -353 221 708 -271 vlineto
          -152 -425 -156 425 rlineto
          endchar
        </CharString>
        <CharString name="N">
          121 486 callsubr
          235 222 vstem
          729 708 -4 callsubr
          endchar
        </CharString>
        <CharString name="NULL">
          -658 endchar
        </CharString>
        <CharString name="Nacute">
          121 579 callsubr
          50 222 -14 259 -10 222 hintmask 11101000
          729 708 -4 callsubr
          hintmask 11010000
          -212 1007 -86 callgsubr
          endchar
        </CharString>
        <CharString name="Ncaron">
          121 579 callsubr
          50 222 -49 331 -47 222 hintmask 11101000
          729 708 -4 callsubr
          hintmask 11010000
          -175 968 -84 callgsubr
        </CharString>
        <CharString name="Ntilde">
          121 0 926 -905 310 callsubr
          61 -29 callsubr
          50 222 235 222 hintmask 0110010110000000
          729 708 -4 callsubr
          hintmask 0111000110000000
          -574 749 504 callsubr
          hintmask 0110001110000000
          116 callgsubr
          hintmask 0110010110000000
          40 39 -45 65 hhcurveto
          hintmask 1000000110000000
          82 57 47 128 22 hvcurveto
          -109 hlineto
          hintmask 0110100110000000
          131 callsubr
          hintmask 0111000110000000
          224 callgsubr
          41 callsubr
        </CharString>
        <CharString name="O">
          100 callgsubr
          hstem
          30 497 callsubr
          vstem
          -102 callsubr
          endchar
        </CharString>
        <CharString name="OE">
          391 -12 205 -193 177 100 167 71 205 -188 176 hstemhm
          30 226 277 232 -232 452 -442 472 hintmask 0110111000000000
          765 532 rmoveto
          hintmask 0110110010000000
          250 176 -472 hlineto
          hintmask 1011010010000000
          -37 vlineto
          33 -44 -62 16 -59 hhcurveto
          -202 -146 -151 -215 -215 146 -151 202 hvcurveto
          59 3 62 13 44 33 rrcurveto
          hintmask 0110110010000000
          -37 580 callsubr
          vlineto
          hintmask 0110111000000000
          -250 100 hlineto
          hintmask 0110110100000000
          337 callsubr
          hintmask 1011011000000000
          -220 hlineto
          -509 -90 rmoveto
          98 48 63 91 89 49 -63 -98 -98 -49 -63 -89 -91 -48 63 98 vhcurveto
          endchar
        </CharString>
        <CharString name="Oacute">
          100 callgsubr
          hstemhm
          30 226 8 259 10 225 hintmask 11101000
          -102 callsubr
          hintmask 11111000
          128 807 -86 callgsubr
          endchar
        </CharString>
        <CharString name="Ocircumflex">
          100 callgsubr
          hstemhm
          30 226 -27 331 -27 225 hintmask 11101000
          -102 callsubr
          hintmask 11010000
          165 549 -72 callsubr
          endchar
        </CharString>
        <CharString name="Odieresis">
          100 callgsubr
          47 172 hstemhm
          30 226 -60 295 callgsubr
          -60 225 hintmask 11110010
          -102 callsubr
          hintmask 11101100
          -114 567 rmoveto
          -104 callsubr
          346 callgsubr
        </CharString>
        <CharString name="Ograve">
          100 callgsubr
          hstemhm
          30 226 8 259 10 225 hintmask 11101000
          -102 callsubr
          hintmask 11111000
          -131 807 20 callsubr
          endchar
        </CharString>
        <CharString name="Ohungarumlaut">
          100 callgsubr
          28 244 hstemhm
          30 497 callsubr
          hintmask 11011000
          -102 callsubr
          hintmask 11111000
          56 792 -1 callsubr
        </CharString>
        <CharString name="Omacron">
          100 callgsubr
          49 147 hstemhm
          30 226 -76 431 -78 225 hintmask 11110100
          -102 callsubr
          hintmask 11101000
          -215 716 112 callsubr
          endchar
        </CharString>
        <CharString name="Oslash">
          130 -7 207 -199 112 402 205 -120 112 0 -20 hstemhm
          29 497 callsubr
          hintmask 10010110
          394 -7 rmoveto
          200 163 151 213 97 -33 83 -55 63 hvcurveto
          100 112 rlineto
          -115 hlineto
          hintmask 01100110
          -49 -55 rlineto
          40 -60 -72 23 -79 hhcurveto
          -201 -164 -150 -213 -97 34 -84 56 -63 hvcurveto
          -101 -112 rlineto
          116 hlineto
          hintmask 10001110
          50 55 rlineto
          hintmask 10010110
          -40 59 73 -23 78 hhcurveto
          hintmask 10100110
          -139 364 rmoveto
          96 48 62 91 27 23 -6 -10 19 vhcurveto
          -195 -218 rlineto
          -9 22 -4 25 29 vvcurveto
          139 -157 rmoveto
          -27 -22 5 10 -20 hvcurveto
          194 217 rlineto
          9 -21 4 -26 -28 vvcurveto
          -94 -49 -63 -89 vhcurveto
          endchar
        </CharString>
        <CharString name="Otilde">
          100 callgsubr
          29 -29 callsubr
          30 497 callsubr
          hintmask 11001011
          -102 callsubr
          hintmask 11100011
          -234 549 504 callsubr
          hintmask 11000111
          116 callgsubr
          hintmask 11001011
          -52 callsubr
          hintmask 11010011
          131 callsubr
          hintmask 11100011
          224 callgsubr
          41 callsubr
        </CharString>
        <CharString name="P">
          -9 21 -21 225 175 130 178 hstem
          50 222 132 225 vstem
          335 400 472 callgsubr
          294 65 rmoveto
          143 -91 100 -178 vhcurveto
          -310 -708 222 225 88 hlineto
          178 91 109 131 hvcurveto
          endchar
        </CharString>
        <CharString name="Q">
          130 -115 315 -207 278 callsubr
          hstemhm
          30 497 callsubr
          hintmask 01111000
          395 200 rmoveto
          -91 -48 63 94 96 48 62 91 89 49 -62 -96 -94 -49 -63 -89 hvcurveto
          -207 vmoveto
          18 18 1 3 17 hvcurveto
          hintmask 10111000
          68 -112 rlineto
          262 hlineto
          -144 194 rlineto
          76 65 48 97 116 vvcurveto
          213 -161 150 -202 -201 -164 -150 -213 vhcurveto
          hintmask 01111000
          -213 164 -151 201 vhcurveto
          endchar
        </CharString>
        <CharString name="R">
          12 0 402 120 186 hstem
          50 222 152 225 vstem
          -19 callgsubr
          endchar
        </CharString>
        <CharString name="Racute">
          12 0 450 callgsubr
          -78 259 -29 225 hintmask 11101000
          -19 callgsubr
          hintmask 11010000
          73 299 -86 callgsubr
          endchar
        </CharString>
        <CharString name="Rcaron">
          12 0 450 callgsubr
          -113 331 -66 225 hintmask 11101000
          -19 callgsubr
          hintmask 11010000
          110 260 -84 callgsubr
        </CharString>
        <CharString name="S">
          -33 -7 16 callgsubr
          -239 239 -227 236 hintmask 0110010000000000
          327 -7 rmoveto
          hintmask 0101001001000000
          96 callsubr
          hintmask 0110001010000000
          24 23 -13 -43 2 hvcurveto
          hintmask 0110000100000000
          161 callsubr
          hintmask 1010001001000000
          23 callgsubr
          hintmask 0110100001000000
          -22 -28 9 52 -4 hvcurveto
          hintmask 0110010000000000
          -236 hlineto
          -159 10 127 -75 162 hhcurveto
          endchar
        </CharString>
        <CharString name="Sacute">
          -33 -7 16 callgsubr
          -406 259 -92 -9 callsubr
          114 1014 -86 callgsubr
          endchar
        </CharString>
        <CharString name="Scaron">
          -33 -7 16 callgsubr
          -441 331 -129 -9 callsubr
          151 975 -84 callgsubr
        </CharString>
        <CharString name="T">
          -42 21 -21 532 176 hstem
          196 222 vstem
          10 708 252 callgsubr
          endchar
        </CharString>
        <CharString name="Tcaron">
          -42 21 -21 532 176 hstemhm
          137 331 -272 222 hintmask 11010000
          10 708 252 callgsubr
          hintmask 11100000
          -138 260 -84 callgsubr
        </CharString>
        <CharString name="Thorn">
          -9 0 290 -165 165 130 168 -168 288 hstemhm
          50 220 -220 222 132 225 hintmask 10010110
          335 290 472 callgsubr
          hintmask 01101010
          294 65 rmoveto
          137 -91 96 -178 vhcurveto
          -90 hlineto
          hintmask 10011010
          120 vlineto
          hintmask 10010110
          -220 -708 222 hlineto
          hintmask 01010110
          125 88 vlineto
          hintmask 01101010
          178 91 104 126 hvcurveto
          endchar
        </CharString>
        <CharString name="U">
          165 callgsubr
          hstem
          46 221 185 221 vstem
          -90 callgsubr
          endchar
        </CharString>
        <CharString name="Uacute">
          165 callgsubr
          434 callsubr
          -38 38 185 221 hintmask 11101000
          46 708 rmoveto
          -399 vlineto
          -209 130 -107 177 177 143 107 209 vhcurveto
          399 -221 -399 vlineto
          -61 -27 -45 -67 vhcurveto
          hintmask 11011000
          550 callsubr
          hvcurveto
          399 vlineto
          221 299 -86 callgsubr
          endchar
        </CharString>
        <CharString name="Ubreve">
          165 callgsubr
          59 489 callsubr
          46 221 -95 103 170 103 -96 221 hintmask 11101001
          -90 callgsubr
          hintmask 11101010
          281 242 148 callsubr
        </CharString>
        <CharString name="Ucircumflex">
          165 callgsubr
          434 callsubr
          -73 73 185 73 -73 221 hintmask 11100100
          -90 callgsubr
          hintmask 11011000
          258 41 -72 callsubr
          endchar
        </CharString>
        <CharString name="Udieresis">
          165 callgsubr
          79 172 434 callsubr
          -106 106 -106 295 callgsubr
          -106 106 -106 221 hintmask 1111000010000000
          -90 callgsubr
          hintmask 1110100010000000
          -21 59 rmoveto
          hintmask 1110010010000000
          50 37 37 48 50 -37 37 -50 hvcurveto
          hintmask 1110100010000000
          -48 -37 -37 -50 -48 37 -37 48 hvcurveto
          hintmask 1111000100000000
          225 hmoveto
          50 37 37 48 50 -37 37 -50 hvcurveto
          hintmask 1111001000000000
          -48 -37 -37 -50 hvcurveto
          hintmask 1111000100000000
          640 callgsubr
        </CharString>
        <CharString name="Ugrave">
          165 callgsubr
          434 callsubr
          -38 38 185 36 -36 221 hintmask 11101000
          46 708 rmoveto
          -399 vlineto
          -209 130 -107 177 vhcurveto
          hintmask 11100100
          177 143 107 209 hvcurveto
          399 vlineto
          hintmask 11101000
          -221 -399 hlineto
          557 callgsubr
          hintmask 11011000
          -38 299 20 callsubr
          endchar
        </CharString>
        <CharString name="Uhungarumlaut">
          165 callgsubr
          60 244 hstem
          46 221 185 221 vstem
          -90 callgsubr
          149 284 -1 callsubr
        </CharString>
        <CharString name="Umacron">
          165 callgsubr
          81 147 434 callsubr
          -122 122 185 124 -124 221 hintmask 11110010
          -90 callgsubr
          hintmask 11101100
          -122 208 112 callsubr
          endchar
        </CharString>
        <CharString name="Uogonek">
          61 -220 116 -116 423 -423 928 0 -20 434 callsubr
          -92 497 callgsubr
          3 221 hintmask 10011001
          46 708 rmoveto
          -399 vlineto
          -159 75 -100 115 -39 vhcurveto
          hintmask 00100010
          -47 -36 -14 -35 -40 vvcurveto
          236 callsubr
          hintmask 10010010
          116 vlineto
          hintmask 10010101
          -13 callgsubr
          43 21 -1 1 rlineto
          131 33 94 102 170 vvcurveto
          399 -221 -399 vlineto
          hintmask 01011001
          557 callgsubr
          endchar
        </CharString>
        <CharString name="Uring">
          165 callgsubr
          52 85 94 85 434 callsubr
          -39 86 92 86 -40 221 hintmask 11111001
          -90 callgsubr
          hintmask 11110110
          225 164 -5 callgsubr
          endchar
        </CharString>
        <CharString name="Utilde">
          165 callgsubr
          61 -29 callsubr
          46 188 -188 221 185 221 hintmask 1100100110000000
          -90 callgsubr
          hintmask 1110001010000000
          -141 41 504 callsubr
          hintmask 1100011010000000
          116 callgsubr
          hintmask 1100100110000000
          -52 callsubr
          hintmask 1101000110000000
          131 callsubr
          hintmask 1110000110000000
          224 callgsubr
          hintmask 1110001010000000
          41 callsubr
        </CharString>
        <CharString name="V">
          105 429 callgsubr
          0 763 vstem
          527 708 rmoveto
          -145 -487 -146 487 rlineto
          -236 hlineto
          238 -708 rlineto
          287 hlineto
          238 708 rlineto
          endchar
        </CharString>
        <CharString name="W">
          197 callsubr
          hstemhm
          30 1040 -42 callsubr
          endchar
        </CharString>
        <CharString name="Wacute">
          197 callsubr
          hstemhm
          421 259 -42 callsubr
          411 296 -86 callgsubr
          endchar
        </CharString>
        <CharString name="Wcircumflex">
          197 callsubr
          hstemhm
          385 331 -42 callsubr
          447 38 -72 callsubr
          endchar
        </CharString>
        <CharString name="Wdieresis">
          197 callsubr
          76 172 hstemhm
          352 295 callgsubr
          hintmask 01111100
          30 708 rmoveto
          162 -708 rlineto
          276 hlineto
          82 402 82 -402 rlineto
          276 hlineto
          162 708 rlineto
          -239 hlineto
          hintmask 10111100
          -64 -446 -96 446 rlineto
          -242 hlineto
          -96 -446 -64 446 rlineto
          168 56 rmoveto
          -104 callsubr
          346 callgsubr
        </CharString>
        <CharString name="Wgrave">
          197 callsubr
          hstemhm
          421 259 -42 callsubr
          152 296 20 callsubr
          endchar
        </CharString>
        <CharString name="X">
          106 429 callgsubr
          0 764 vstem
          501 hmoveto
          263 hlineto
          -248 350 229 358 rlineto
          -253 hlineto
          -104 -177 -125 177 rlineto
          -263 hlineto
          243 -343 -233 -365 rlineto
          253 hlineto
          108 184 rlineto
          endchar
        </CharString>
        <CharString name="Y">
          72 429 callgsubr
          254 222 vstem
          -45 callsubr
          endchar
        </CharString>
        <CharString name="Yacute">
          72 579 callsubr
          235 259 -240 222 hintmask 11010000
          -45 callsubr
          hintmask 11100000
          240 299 -86 callgsubr
          endchar
        </CharString>
        <CharString name="Ycircumflex">
          72 579 callsubr
          200 331 -277 222 hintmask 11010000
          -45 callsubr
          hintmask 11100000
          277 41 -72 callsubr
          endchar
        </CharString>
        <CharString name="Ydieresis">
          72 201 callgsubr
          79 172 hstemhm
          167 172 -85 222 -84 172 hintmask 11101000
          -45 callsubr
          hintmask 11110100
          -2 59 rmoveto
          -104 callsubr
          346 callgsubr
        </CharString>
        <CharString name="Ygrave">
          72 579 callsubr
          235 259 -240 222 hintmask 11010000
          -45 callsubr
          hintmask 11100000
          -19 299 20 callsubr
          endchar
        </CharString>
        <CharString name="Z">
          422 callsubr
          hstem
          50 530 vstem
          24 callgsubr
          endchar
        </CharString>
        <CharString name="Zacute">
          422 callsubr
          hstemhm
          50 530 -396 259 hintmask 11100000
          24 callgsubr
          hintmask 11010000
          147 830 -86 callgsubr
          endchar
        </CharString>
        <CharString name="Zcaron">
          422 callsubr
          hstemhm
          50 530 -431 331 hintmask 11100000
          24 callgsubr
          hintmask 11010000
          184 791 -84 callgsubr
        </CharString>
        <CharString name="Zdotaccent">
          422 callsubr
          59 172 hstemhm
          50 530 -352 172 hintmask 11010000
          24 callgsubr
          hintmask 11101000
          17 590 rmoveto
          -104 callsubr
          endchar
        </CharString>
        <CharString name="a">
          33 callgsubr
          hstemhm
          20 225 164 221 hintmask 01011100
          -14 callsubr
          hintmask 10101100
          175 callsubr
          hintmask 01011100
          -31 callgsubr
          hvcurveto
          hintmask 10101100
          389 hmoveto
          394 callgsubr
        </CharString>
        <CharString name="a.ss02">
          -46 callgsubr
          110 callsubr
          -223 49 callsubr
          hintmask 0010100000100000
          372 76 -72 callgsubr
          hintmask 0010010001000000
          3 callsubr
          hintmask 0010100100000000
          -177 -77 -72 -100 hvcurveto
          hintmask 1000100100000000
          -105 80 -57 97 vhcurveto
          hintmask 0010100000100000
          248 callsubr
          hintmask 0101101010000000
          -63 callsubr
        </CharString>
        <CharString name="aacute">
          33 callgsubr
          199 410 callsubr
          -29 259 -66 221 hintmask 01011101
          -14 callsubr
          hintmask 10101101
          175 callsubr
          hintmask 01011101
          -31 callgsubr
          hvcurveto
          hintmask 10101101
          389 hmoveto
          -89 callgsubr
          hintmask 01011010
          66 578 -86 callgsubr
          endchar
        </CharString>
        <CharString name="aacute.ss02">
          -46 callgsubr
          178 -20 110 callsubr
          -377 259 -105 49 callsubr
          hintmask 0010101001000000
          475 860 -86 callgsubr
          hintmask 0010101000001000
          -103 -620 -90 callsubr
        </CharString>
        <CharString name="abreve">
          33 callgsubr
          49 445 callgsubr
          -86 103 147 221 -198 103 hintmask 0101001010000000
          -14 callsubr
          hintmask 1010001010000000
          175 callsubr
          hintmask 0101001010000000
          -31 callgsubr
          hvcurveto
          hintmask 1010001010000000
          389 hmoveto
          -89 callgsubr
          hintmask 0101101001000000
          126 521 rmoveto
          hintmask 0101011001000000
          17 -103 vlineto
          hintmask 0101101001000000
          253 callgsubr
          hintmask 0101010110000000
          45 callsubr
          hintmask 0101100110000000
          187 callgsubr
          hintmask 0101101001000000
          155 callgsubr
        </CharString>
        <CharString name="abreve.ss02">
          -46 callgsubr
          28 158 -158 220 110 callsubr
          -434 103 108 49 callsubr
          -161 103 hintmask 0010101000100010
          535 803 rmoveto
          hintmask 0010100100100010
          17 -103 vlineto
          hintmask 0010101000100010
          253 callgsubr
          hintmask 0010100100100100
          45 callsubr
          hintmask 0010101000100100
          187 callgsubr
          hintmask 0010101000100010
          105 83 65 138 hvcurveto
          hintmask 0010100000100100
          -163 -727 -72 callgsubr
          hintmask 0010010000101000
          3 callsubr
          hintmask 0010100001000000
          -177 -77 -72 -100 hvcurveto
          hintmask 1000100001000000
          -105 80 -57 97 vhcurveto
          hintmask 0010100000100100
          248 callsubr
          hintmask 0101100010010000
          -63 callsubr
        </CharString>
        <CharString name="acircumflex">
          33 callgsubr
          195 410 callsubr
          -64 331 -103 103 -103 -38 callgsubr
          hintmask 0101110100000000
          103 320 rmoveto
          144 vlineto
          -165 75 rlineto
          hintmask 0101101000000000
          346 callsubr
        </CharString>
        <CharString name="acircumflex.ss02">
          -46 callgsubr
          174 -20 110 callsubr
          -412 331 -142 49 callsubr
          hintmask 0010101001000000
          512 602 -72 callsubr
          hintmask 0010101000001000
          25 -604 -90 callsubr
        </CharString>
        <CharString name="acute">
          -379 750 -20 hstem
          10 259 vstem
          269 860 -86 callgsubr
          endchar
        </CharString>
        <CharString name="adieresis">
          33 callgsubr
          69 172 179 callsubr
          -97 295 callgsubr
          -136 -38 callgsubr
          hintmask 0101101100000000
          -176 338 rmoveto
          -104 callsubr
          346 callgsubr
        </CharString>
        <CharString name="adieresis.ss02">
          -46 callgsubr
          48 172 110 callsubr
          -445 172 50 49 callsubr
          -220 172 hintmask 0010101001001000
          233 620 rmoveto
          -104 callsubr
          hintmask 0010101001000100
          225 hmoveto
          -104 callsubr
          hintmask 0010101001001000
          -86 -544 -72 callgsubr
          hintmask 0010011001010000
          3 callsubr
          hintmask 0010101010000000
          -177 -77 -72 -100 hvcurveto
          hintmask 1000101010000000
          -105 80 -57 97 vhcurveto
          hintmask 0010101001001000
          -16 callsubr
        </CharString>
        <CharString name="ae">
          205 callgsubr
          179 callsubr
          164 221 179 225 hintmask 1000100011110000
          262 callgsubr
          hintmask 0100010001110000
          355 callsubr
          hintmask 1000001001110000
          561 callgsubr
          hintmask 1000010001110000
          77 -221 vlineto
          hintmask 1000001001110000
          -77 vlineto
          51 -27 -54 33 -75 hhcurveto
          107 callsubr
          hintmask 0001000001110000
          -77 221 vlineto
          hintmask 1000010001110000
          77 vlineto
          -52 28 57 -32 81 hhcurveto
          hintmask 1000100011110000
          117 85 90 120 24 hvcurveto
          hintmask 0010000101110000
          -777 79 rmoveto
          62 36 33 46 46 36 -33 -62 -62 -36 -33 -46 -46 -36 33 62 vhcurveto
          endchar
        </CharString>
        <CharString name="agrave">
          33 callgsubr
          199 410 callsubr
          -29 259 -66 66 -66 -38 callgsubr
          hintmask 0101101000000000
          -193 578 rmoveto
          -164 vlineto
          hintmask 0101110100000000
          305 callsubr
        </CharString>
        <CharString name="agrave.ss02">
          -46 callgsubr
          178 -20 110 callsubr
          -377 259 -105 49 callsubr
          hintmask 0010101001000000
          216 860 20 callsubr
          hintmask 0010101000001000
          -103 -674 -90 callsubr
        </CharString>
        <CharString name="amacron">
          22 0 187 -187 769 -755 121 callsubr
          71 147 179 callsubr
          -113 431 -154 154 -154 221 hintmask 0010111001000000
          -14 callsubr
          hintmask 0100001001000000
          -77 221 vlineto
          hintmask 0011011001000000
          564 -221 vlineto
          hintmask 0010111001000000
          -31 callgsubr
          hvcurveto
          hintmask 1001011001000000
          389 hmoveto
          -89 callgsubr
          hintmask 0010110100000000
          -277 487 rmoveto
          -147 vlineto
          hintmask 0010111010000000
          431 147 hlineto
          endchar
        </CharString>
        <CharString name="amacron.ss02">
          -46 callgsubr
          50 147 110 callsubr
          -461 431 -193 49 callsubr
          hintmask 0010101001000000
          132 769 112 callsubr
          hintmask 0010101000001000
          -191 -693 -90 callsubr
        </CharString>
        <CharString name="ampersand">
          173 -10 175 -165 366 158 197 -159 159 hstemhm
          36 212 -132 204 76 202 hintmask 01101010
          396 524 rmoveto
          202 hlineto
          99 -77 98 -162 vhcurveto
          hintmask 01100110
          -158 -85 -91 -106 -41 13 -38 33 -41 hvcurveto
          hintmask 10101010
          -85 -46 -41 -72 -79 vvcurveto
          -129 107 -88 174 86 73 19 37 62 vhcurveto
          hintmask 01010110
          49 -46 rlineto
          244 hlineto
          -167 162 36 50 32 59 26 69 rlinecurve
          10 26 rlineto
          -215 hlineto
          -3 -9 -7 -22 -8 -20 -10 -19 rlinecurve
          -161 156 rlineto
          -28 27 -16 26 21 vvcurveto
          24 19 12 20 vhcurveto
          hintmask 01101010
          18 19 -11 -27 hvcurveto
          hintmask 10101010
          -63 -359 rmoveto
          -56 -29 29 33 20 11 22 23 17 hvcurveto
          118 -110 rlineto
          -7 -20 -23 -4 -24 hhcurveto
          endchar
        </CharString>
        <CharString name="ampersand.ss03">
          42 -7 183 -155 -21 464 251 -183 183 hstemhm
          25 189 180 206 hintmask 01101100
          361 715 rmoveto
          -147 -76 -87 -91 -41 8 -36 21 -34 hvcurveto
          -83 -24 -59 -77 -107 vvcurveto
          hintmask 10101100
          -120 79 -105 160 77 58 26 37 40 vhcurveto
          hintmask 01011100
          40 -56 rlineto
          221 hlineto
          -334 468 rlineto
          -15 22 -6 10 12 vvcurveto
          12 8 8 12 16 7 -9 -18 3 vhcurveto
          hintmask 01101100
          2 -11 1 -14 -16 vvcurveto
          206 hlineto
          2 39 -4 43 -14 38 rrcurveto
          72 -28 -61 59 -134 hhcurveto
          hintmask 10101100
          -95 -539 rmoveto
          -31 -21 19 29 28 21 18 31 31 21 -18 -28 -29 -21 -19 -31 hvcurveto
          endchar
        </CharString>
        <CharString name="aogonek">
          22 -223 116 100 194 -173 -21 28 -21 377 187 7 410 callsubr
          111 155 -102 221 hintmask 1001011010000000
          20 282 rmoveto
          hintmask 1010011010000000
          98 callgsubr
          vhcurveto
          -75 vlineto
          hintmask 1001011100000000
          -40 -34 -13 -33 -38 578 callgsubr
          hintmask 1001011010000000
          42 38 6 10 33 hvcurveto
          116 vlineto
          hintmask 1001011100000000
          -13 callgsubr
          hintmask 1001101010000000
          43 21 rlineto
          564 -221 vlineto
          hintmask 1001011010000000
          -31 callgsubr
          hvcurveto
          hintmask 1100101010000000
          389 hmoveto
          394 callgsubr
        </CharString>
        <CharString name="aogonek.ss02">
          -15 -223 116 96 154 -122 -21 233 90 31 218 -178 178 110 callsubr
          -274 155 -104 49 callsubr
          hintmask 0101100000010000
          372 76 rmoveto
          -74 vlineto
          hintmask 1011100010000000
          -40 -34 -13 -33 -38 578 callgsubr
          hintmask 1011100000010000
          42 38 6 10 33 hvcurveto
          116 vlineto
          hintmask 1011100010000000
          -13 callgsubr
          hintmask 0011100000010000
          43 21 rlineto
          332 vlineto
          144 -110 96 -170 -147 -110 -93 -125 -29 vhcurveto
          224 hlineto
          hintmask 0011010000100000
          3 callsubr
          hintmask 0101100100000000
          -177 -77 -72 -100 -105 80 -57 97 hvcurveto
          hintmask 0101100000010000
          248 callsubr
          hintmask 0101101001000000
          -63 callsubr
        </CharString>
        <CharString name="apostrophemod.ss01">
          78 callsubr
        </CharString>
        <CharString name="approxequal">
          53 70 293 callgsubr
          11 293 callgsubr
          hstemhm
          20 671 hintmask 1000001010000000
          20 70 rmoveto
          164 hlineto
          hintmask 0001001010000000
          49 8 16 20 36 hhcurveto
          hintmask 0010001010000000
          251 callgsubr
          hintmask 0100001010000000
          -50 -7 -16 -19 -36 hhcurveto
          hintmask 1000001010000000
          323 callgsubr
          hintmask 0100100010000000
          275 vmoveto
          164 hlineto
          hintmask 0100000110000000
          49 8 16 20 36 hhcurveto
          hintmask 0100001010000000
          251 callgsubr
          hintmask 0100010010000000
          -50 -7 -16 -19 -36 hhcurveto
          hintmask 0100100010000000
          323 callgsubr
          endchar
        </CharString>
        <CharString name="aring">
          33 callgsubr
          42 85 94 85 179 callsubr
          -30 86 92 86 -70 221 hintmask 0101011001000000
          -14 callsubr
          hintmask 1010011001000000
          175 callsubr
          hintmask 0101011001000000
          -31 callgsubr
          hvcurveto
          hintmask 1010011001000000
          389 hmoveto
          -89 callgsubr
          hintmask 0101110110000000
          70 443 -5 callgsubr
          endchar
        </CharString>
        <CharString name="aring.ss02">
          -46 callgsubr
          21 85 94 85 110 callsubr
          -378 86 69 49 callsubr
          -200 86 hintmask 0010101100100010
          479 725 -5 callgsubr
          hintmask 0010100100100100
          -21 -649 -72 callgsubr
          hintmask 0010010100101000
          3 callsubr
          hintmask 0010100101000000
          -177 -77 -72 -100 hvcurveto
          hintmask 1000100101000000
          -105 80 -57 97 vhcurveto
          hintmask 0010100100100100
          248 callsubr
          hintmask 0101100110010000
          -63 callsubr
        </CharString>
        <CharString name="asciicircum">
          100 162 549 hstem
          25 708 vstem
          380 460 rmoveto
          133 -298 505 callgsubr
          -244 549 rlineto
          -218 hlineto
          -246 -549 505 callgsubr
          endchar
        </CharString>
        <CharString name="asciitilde">
          53 181 293 callgsubr
          hstemhm
          20 671 hintmask 10001000
          20 181 rmoveto
          164 hlineto
          hintmask 00011000
          49 8 16 20 36 hhcurveto
          hintmask 00101000
          251 callgsubr
          hintmask 01001000
          -50 -7 -16 -19 -36 hhcurveto
          hintmask 10001000
          323 callgsubr
          endchar
        </CharString>
        <CharString name="asterisk">
          -97 360 384 -36 -20 21 -20 hstemhm
          84 403 hintmask 00110000
          327 625 rmoveto
          hintmask 10010000
          29 119 rlineto
          -142 hlineto
          hintmask 01010000
          31 -119 -92 83 -67 -121 109 -32 -111 -36 75 -129 85 87 rlineto
          hintmask 10010000
          -28 -117 rlineto
          139 hlineto
          -28 117 87 -86 73 127 -111 34 111 36 rlineto
          hintmask 00110000
          -67 121 rlineto
          endchar
        </CharString>
        <CharString name="at">
          471 -245 149 89 154 -151 383 callsubr
          426 -148 153 114 146 hstemhm
          76 160 77 185 109 552 callgsubr
          173 110 163 hintmask 1010111110100000
          473 -245 rmoveto
          86 80 16 30 68 hvcurveto
          -38 139 rlineto
          -21 -49 -64 -15 -73 hhcurveto
          -155 -92 98 150 213 169 176 221 162 102 -94 -138 -91 -24 -80 -57 hvcurveto
          hintmask 1010111101100000
          -30 -6 25 38 7 hvcurveto
          hintmask 1001011110100000
          39 221 rlineto
          -172 hlineto
          hintmask 1100111110100000
          -10 -58 rlineto
          38 -13 -37 25 -56 hhcurveto
          -129 -89 -132 -142 -102 59 -58 96 70 57 28 52 34 hvcurveto
          hintmask 1010111110100000
          -49 23 52 -28 74 hhcurveto
          180 95 142 177 220 -162 152 -246 -321 -248 -228 -323 -231 157 -150 240 hvcurveto
          91 519 rmoveto
          25 18 -19 -31 hvcurveto
          hintmask 1100111110100000
          -46 -34 -31 -32 -26 -17 18 30 vhcurveto
          hintmask 1010111110100000
          47 32 32 34 vhcurveto
          endchar
        </CharString>
        <CharString name="atilde">
          33 callgsubr
          51 415 callsubr
          164 221 hintmask 0101001011000000
          -14 callsubr
          hintmask 1010001011000000
          175 callsubr
          hintmask 0101001011000000
          -31 callgsubr
          hvcurveto
          hintmask 1010100011000000
          389 hmoveto
          -89 callgsubr
          -296 320 504 callsubr
          hintmask 0101000111000000
          116 callgsubr
          hintmask 0101001011000000
          -52 callsubr
          hintmask 0101010011000000
          131 callsubr
          hintmask 0101100011000000
          224 callgsubr
          hintmask 1010100011000000
          41 callsubr
        </CharString>
        <CharString name="atilde.ss02">
          -46 callgsubr
          30 -29 callsubr
          20 224 -224 573 -223 49 callsubr
          hintmask 0010101000000010
          113 602 504 callsubr
          hintmask 0010100001000010
          116 callgsubr
          hintmask 0010100010000010
          -52 callsubr
          hintmask 0010100100000010
          131 callsubr
          hintmask 0010101000000010
          224 callgsubr
          -82 -57 -48 -128 -22 hvcurveto
          hintmask 0010100010000010
          259 -526 -72 callgsubr
          hintmask 0010010010000100
          3 callsubr
          hintmask 0010100010010000
          -177 -77 -72 -100 hvcurveto
          hintmask 1000100010010000
          -105 80 -57 97 vhcurveto
          hintmask 0010100010000010
          248 callsubr
          hintmask 0101100010101000
          -63 callsubr
        </CharString>
        <CharString name="b">
          22 304 callgsubr
          0 -20 189 -20 hstemhm
          50 221 -221 222 163 225 hintmask 01011010
          272 487 rmoveto
          253 -222 vlineto
          hintmask 10011010
          -740 222 vlineto
          hintmask 01011011
          77 vlineto
          -51 27 53 -33 75 hhcurveto
          528 callgsubr
          hintmask 01011010
          -75 -53 -33 -51 -27 hvcurveto
          hintmask 10101101
          300 callsubr
        </CharString>
        <CharString name="backslash">
          220 -198 1153 hstem
          200 452 vstem
          652 -198 rmoveto
          -240 1153 rlineto
          -212 hlineto
          240 -1153 rlineto
          endchar
        </CharString>
        <CharString name="bar">
          -396 -144 972 hstem
          20 222 vstem
          242 828 rmoveto
          -222 -972 222 hlineto
          endchar
        </CharString>
        <CharString name="braceleft">
          -174 -231 177 296 181 295 177 hstemhm
          60 187 -187 295 -228 210 -210 303 -278 203 hintmask 11101000
          60 242 rmoveto
          hintmask 11100001
          70 22 -26 -38 hvcurveto
          hintmask 11100010
          -49 -25 -83 -70 vvcurveto
          -134 90 -73 137 vhcurveto
          76 177 hlineto
          hintmask 11100100
          -34 hlineto
          -44 -15 21 33 hvcurveto
          hintmask 11101000
          41 18 90 56 vvcurveto
          hintmask 11110000
          76 -34 54 -74 14 vhcurveto
          2 vlineto
          hintmask 11101000
          74 14 34 54 76 vvcurveto
          hintmask 11100100
          56 -18 90 41 vvcurveto
          33 15 21 44 vhcurveto
          hintmask 11100010
          34 177 -76 hlineto
          -137 -90 -73 -134 hvcurveto
          hintmask 11100001
          -70 25 -83 -49 vvcurveto
          hintmask 11101000
          -42 -22 -21 -70 vhcurveto
          endchar
        </CharString>
        <CharString name="braceright">
          -174 718 -20 hstem
          54 370 vstem
          424 242 rmoveto
          -70 -22 -26 -38 hvcurveto
          -49 25 -83 -70 vvcurveto
          -134 -90 -73 -137 vhcurveto
          -76 177 34 hlineto
          44 15 21 33 hvcurveto
          41 -18 90 56 vvcurveto
          76 34 54 74 14 vhcurveto
          2 vlineto
          -74 14 -34 54 76 56 18 90 41 vvcurveto
          33 -15 21 -44 vhcurveto
          -34 177 76 hlineto
          137 90 -73 -134 hvcurveto
          -70 -25 -83 -49 vvcurveto
          -42 22 -21 70 vhcurveto
          endchar
        </CharString>
        <CharString name="bracketleft">
          -125 -229 178 768 178 hstemhm
          95 208 -208 382 hintmask 11100000
          95 895 rmoveto
          -1124 vlineto
          hintmask 11010000
          382 178 hlineto
          hintmask 11100000
          -174 768 hlineto
          hintmask 11010000
          174 178 hlineto
          endchar
        </CharString>
        <CharString name="bracketright">
          -125 -51 768 hstem
          56 382 vstem
          438 895 rmoveto
          -1124 -382 178 174 768 -174 178 vlineto
          endchar
        </CharString>
        <CharString name="breve">
          -263 600 489 callsubr
          10 103 170 103 hintmask 10110000
          386 803 rmoveto
          hintmask 01110000
          17 -103 vlineto
          hintmask 10110000
          253 callgsubr
          hintmask 01110000
          45 callsubr
          hintmask 10110000
          -138 83 -65 105 105 83 65 138 vhcurveto
          endchar
        </CharString>
        <CharString name="brokenbar">
          -226 -144 431 111 430 hstem
          105 222 vstem
          327 287 rmoveto
          -222 -431 222 hlineto
          -222 542 rmoveto
          222 430 -222 hlineto
          endchar
        </CharString>
        <CharString name="bullet">
          -122 166 336 hstem
          100 336 vstem
          268 166 rmoveto
          95 73 73 94 95 -73 74 -95 -94 -74 -74 -95 -94 74 -73 94 hvcurveto
          endchar
        </CharString>
        <CharString name="c">
          145 callgsubr
          179 callsubr
          hintmask 01101000
          48 callgsubr
          hintmask 10011000
          97 callgsubr
          hintmask 01101000
          53 callgsubr
          -169 -119 -109 -180 hvcurveto
          endchar
        </CharString>
        <CharString name="cacute">
          145 callgsubr
          179 410 callsubr
          -77 259 hintmask 01101100
          48 callgsubr
          hintmask 10011100
          97 callgsubr
          hintmask 01101010
          53 callgsubr
          hintmask 01101100
          -169 -119 -109 -180 hvcurveto
          hintmask 01101010
          407 578 -86 callgsubr
          endchar
        </CharString>
        <CharString name="caron">
          -307 602 219 hstem
          10 331 vstem
          341 821 -84 callgsubr
        </CharString>
        <CharString name="ccaron">
          145 callgsubr
          179 callsubr
          -112 331 hintmask 01101000
          48 callgsubr
          hintmask 10011000
          97 callgsubr
          hintmask 01100100
          53 callgsubr
          hintmask 01101000
          -169 -119 -109 -180 hvcurveto
          hintmask 01100100
          444 539 -84 callgsubr
        </CharString>
        <CharString name="ccedilla">
          -49 499 callgsubr
          -100 317 -317 361 -208 -21 22 -21 338 234 470 callsubr
          179 callsubr
          -65 236 callgsubr
          -147 147 hintmask 1100011010000000
          20 282 rmoveto
          hintmask 1100101000100000
          -157 90 -103 135 -24 vhcurveto
          hintmask 1001001000100000
          -132 vlineto
          hintmask 1001001000001000
          98 callsubr
          hintmask 1100011001000000
          401 callsubr
          hintmask 1100011000010000
          502 callgsubr
          hintmask 1100011000100000
          503 callgsubr
          33 vlineto
          hintmask 1001001000100000
          112 22 81 81 23 125 rrcurveto
          -235 hlineto
          hintmask 1010000110000000
          97 callgsubr
          hintmask 1100011000100000
          53 callgsubr
          hintmask 1100011010000000
          -169 -119 -109 -180 hvcurveto
          endchar
        </CharString>
        <CharString name="cdotaccent">
          145 callgsubr
          49 172 179 callsubr
          -33 172 hintmask 01101100
          48 callgsubr
          hintmask 10011100
          97 callgsubr
          hintmask 01101100
          53 callgsubr
          -169 -119 -109 -180 hvcurveto
          hintmask 01101010
          277 338 rmoveto
          -104 callsubr
          endchar
        </CharString>
        <CharString name="cedilla">
          -315 -271 113 31 100 -100 134 hstemhm
          10 236 callgsubr
          -147 147 hintmask 11001000
          203 -27 rmoveto
          hintmask 10101000
          34 -128 -134 vlineto
          hintmask 10100010
          98 callsubr
          hintmask 10110000
          401 callsubr
          hintmask 10100100
          502 callgsubr
          hintmask 11001000
          503 callgsubr
          endchar
        </CharString>
        <CharString name="cent">
          -79 -83 253 -253 288 -212 212 -191 -21 309 211 -211 287 -252 252 hstemhm
          20 383 callgsubr
          539 -295 62 hintmask 0001010101000000
          264 589 rmoveto
          -76 vlineto
          -149 -13 -95 -89 -157 vvcurveto
          -159 95 -89 149 -13 vhcurveto
          hintmask 0100010101000000
          -76 62 vlineto
          hintmask 0001010101000000
          76 vlineto
          hintmask 0010010010000000
          119 9 106 72 8 131 rrcurveto
          -203 hlineto
          hintmask 1000001101000000
          -25 -6 -29 -10 -20 hhcurveto
          -46 -23 31 52 52 23 32 46 hvcurveto
          hintmask 0001010010000000
          20 25 -8 -27 10 hvcurveto
          203 hlineto
          hintmask 0001100101000000
          -8 131 -106 71 -119 9 rrcurveto
          hintmask 0001010101000000
          76 vlineto
          endchar
        </CharString>
        <CharString name="circumflex">
          -307 746 -20 hstem
          10 331 vstem
          341 602 -72 callsubr
          endchar
        </CharString>
        <CharString name="colon">
          -339 -8 220 176 220 hstem
          32 255 vstem
          160 391 callgsubr
          396 vmoveto
          206 callsubr
        </CharString>
        <CharString name="colon.ss01">
          -326 0 212 179 212 hstem
          62 220 vstem
          62 452 callsubr
          -220 391 rmoveto
          121 callgsubr
          endchar
        </CharString>
        <CharString name="comma">
          -316 -120 297 hstem
          45 243 vstem
          92 177 517 callsubr
        </CharString>
        <CharString name="comma.ss01">
          -382 -210 78 71 192 hstemhm
          25 212 -125 125 hintmask 11100000
          196 131 rmoveto
          -171 -192 hlineto
          hintmask 11010000
          631 callgsubr
          hintmask 11100000
          582 callsubr
          endchar
        </CharString>
        <CharString name="copyright">
          113 -6 65 -65 142 180 82 180 142 -65 65 hstemhm
          30 70 -70 134 508 69 hintmask 10101101
          386 720 rmoveto
          -211 -145 -149 -213 -213 145 -151 211 211 144 151 213 213 -144 149 -211 hvcurveto
          -65 vmoveto
          176 110 -116 -181 -180 -110 -119 -176 -177 -109 119 180 181 109 116 177 hvcurveto
          hintmask 01110011
          4 -77 rmoveto
          107 89 -69 -111 16 hvcurveto
          -184 hlineto
          17 -5 -10 18 -23 hhcurveto
          -28 -17 -24 -52 -52 17 -24 28 23 10 18 17 5 hvcurveto
          184 hlineto
          -111 -16 -89 -69 -107 hhcurveto
          -135 -91 85 136 136 91 85 135 hvcurveto
          endchar
        </CharString>
        <CharString name="currency">
          -55 193 127 116 125 hstem
          76 170 116 170 vstem
          304 436 rmoveto
          30 28 -15 -44 -42 -28 -15 -30 -30 -28 15 42 44 28 15 30 hvcurveto
          159 -298 rmoveto
          80 81 -49 49 rlineto
          24 30 14 37 44 vvcurveto
          45 -14 38 -26 29 vhcurveto
          51 50 -80 81 -72 -72 rlineto
          7 -26 -29 4 -32 hhcurveto
          -33 -31 -4 -8 -27 hvcurveto
          -73 73 -80 -81 53 -53 rlineto
          -24 -29 -13 -36 -44 vvcurveto
          -42 13 -37 23 -29 vhcurveto
          -52 -52 80 -81 69 69 rlineto
          -9 28 32 -5 35 hhcurveto
          33 31 4 9 27 hvcurveto
          endchar
        </CharString>
        <CharString name="d">
          22 304 callgsubr
          0 -20 189 -20 558 callgsubr
          hintmask 01011110
          20 282 71 callgsubr
          53 519 callsubr
          hintmask 10011110
          -77 222 740 -222 -253 603 callgsubr
          hintmask 01011110
          602 callsubr
          hintmask 10101101
          389 hmoveto
          394 callgsubr
        </CharString>
        <CharString name="dagger">
          59 -270 1064 -1043 -21 675.5 158.5 hstemhm
          51 615 -408.5 200.5 hintmask 01110000
          666 564 rmoveto
          -219 -15 rlineto
          hintmask 10010000
          22 245 rlineto
          -222 hlineto
          hintmask 01110000
          21 -245 -217 15 rlineto
          -166 vlineto
          hintmask 01101000
          217 15 -21 -683 rlineto
          222 hlineto
          -22 683 rlineto
          hintmask 01110000
          219 -15 rlineto
          endchar
        </CharString>
        <CharString name="daggerdbl">
          58 -270 389 -151.5 151.5 286.5 158.5 -158.5 388.5 hstemhm
          50 397 -179 179 -179 398 hintmask 10100010
          666 398 rmoveto
          166 vlineto
          -219 -15 rlineto
          hintmask 10010010
          21 245 rlineto
          -222 hlineto
          hintmask 10100010
          22 -245 rlineto
          hintmask 10101000
          -218 15 rlineto
          -166 vlineto
          hintmask 10100100
          218 15 rlineto
          -302 vlineto
          hintmask 10101000
          -218 16 rlineto
          hintmask 01101000
          -167 vlineto
          218 15 rlineto
          hintmask 10101000
          -22 -245 rlineto
          222 hlineto
          hintmask 01101000
          -21 245 rlineto
          hintmask 01100010
          219 -15 rlineto
          hintmask 10100010
          167 vlineto
          hintmask 10100100
          -219 -16 rlineto
          302 vlineto
          endchar
        </CharString>
        <CharString name="danda">
          -275 21 -21 740 -20 hstem
          141 202 vstem
          141 547 callsubr
          202 740 vlineto
          endchar
        </CharString>
        <CharString name="dcaron">
          224 304 callgsubr
          -142 79 63 -20 43 146 558 callgsubr
          60 431 callgsubr
          hintmask 0101010101000000
          846 740 430 callsubr
          hintmask 0101010100100000
          627 callgsubr
          hintmask 0101010101000000
          587 callgsubr
          hintmask 0101111101000000
          -826 -458 71 callgsubr
          53 519 callsubr
          hintmask 1001010101000000
          -77 222 740 -222 vlineto
          hintmask 0101110101000000
          -253 603 callgsubr
          hintmask 0101111101000000
          602 callsubr
          hintmask 1010011011000000
          389 hmoveto
          394 callgsubr
        </CharString>
        <CharString name="dcroat">
          46 304 callgsubr
          0 -20 41 96 -96 148 558 callgsubr
          hintmask 0101011100000000
          20 282 71 callgsubr
          53 519 callsubr
          hintmask 1000010100000000
          -77 222 592 64 vlineto
          hintmask 0100100100000000
          96 -64 vlineto
          hintmask 0100010100000000
          52 -222 vlineto
          hintmask 0100100100000000
          -52 -59 vlineto
          hintmask 0100010100000000
          -96 59 vlineto
          hintmask 0101010100000000
          -105 603 callgsubr
          hintmask 0101011100000000
          602 callsubr
          hintmask 1010011010000000
          389 hmoveto
          394 callgsubr
        </CharString>
        <CharString name="degree">
          -162 347 117 136 115 hstem
          23 169 112 169 vstem
          23 533 rmoveto
          -114 95 -72 135 135 85 72 114 115 -89 67 -135 -136 -90 -67 -115 vhcurveto
          281 -2 rmoveto
          -49 -27 -18 -24 -26 -35 18 49 51 32 18 26 24 30 -18 -51 vhcurveto
          endchar
        </CharString>
        <CharString name="dieresis">
          -241 620 172 hstem
          10 295 callgsubr
          vstem
          95 620 rmoveto
          -104 callsubr
          346 callgsubr
        </CharString>
        <CharString name="divide">
          -107 -8 220 -220 449 -201 201 26 220 hstemhm
          20 511 -379 255 hintmask 00101000
          20 441 rmoveto
          -201 511 201 vlineto
          hintmask 01000100
          -251 -449 rmoveto
          78 49 48 61 hvcurveto
          hintmask 10100100
          62 -49 49 -78 -79 -49 -49 -62 vhcurveto
          hintmask 01000100
          -61 49 -48 79 vhcurveto
          hintmask 00110100
          475 vmoveto
          206 callsubr
        </CharString>
        <CharString name="divide.ss01">
          -107 0 212 28 201 28 212 hstemhm
          20 364 -220 220 -220 367 hintmask 11110000
          20 441 rmoveto
          -201 vlineto
          hintmask 11100100
          511 201 hlineto
          hintmask 10101000
          -367 -229 rmoveto
          121 callgsubr
          -220 469 rmoveto
          121 callgsubr
          endchar
        </CharString>
        <CharString name="dollar">
          7 -87 314 -234 234 264 228 -228 309 hstemhm
          30 238 -236 236 31 62 39 237 hintmask 01010010
          299 800 rmoveto
          hintmask 01101010
          -81 vlineto
          -146 -6 -123 -74 -135 vvcurveto
          -171 159 -34 110 -30 vhcurveto
          -98 vlineto
          hintmask 01100110
          -17 9 -12 17 -2 30 rrcurveto
          -236 hlineto
          9 -143 110 -75 148 -14 rrcurveto
          hintmask 10100010
          -82 62 vlineto
          hintmask 01100011
          80 vlineto
          178 4 98 94 118 vvcurveto
          168 -167 33 -109 35 vhcurveto
          97 vlineto
          13 -8 9 -16 3 -27 rrcurveto
          239 hlineto
          -9 139 -98 78 -157 11 rrcurveto
          hintmask 01011011
          81 vlineto
          39 -596 rmoveto
          -24 -16 -13 -23 -5 vhcurveto
          86 vlineto
          24 -11 15 -13 -20 vvcurveto
          -132 310 rmoveto
          20 11 12 20 4 vhcurveto
          -80 vlineto
          -19 11 -12 14 19 vvcurveto
          endchar
        </CharString>
        <CharString name="dotaccent">
          -466 620 172 hstem
          10 172 vstem
          95 620 rmoveto
          -104 callsubr
          endchar
        </CharString>
        <CharString name="dotlessi">
          -286 21 384 callsubr
          hstem
          75 222 vstem
          75 94 callsubr
          endchar
        </CharString>
        <CharString name="dottedcircle">
          -7 -9 84 -70 84 -52 84 -40 84 -32 84 -23 84 -25 84 -22 84 -32 84 -37 84 -57 84 -69 84 hstemhm
          50 86 -71 86 -56 86 -40 86 -34 86 -21 86 -27 86 -24 86 -33 86 -47 86 -52 86 -76 86 hintmask 000100001000001000000100
          557 409 -67 callsubr
          -376 -286 -67 callsubr
          hintmask 010001000000100010000000
          98 -76 -67 callsubr
          -143 189 -67 callsubr
          hintmask 100000010000010000100000
          267 -203 -67 callsubr
          -252 324 -67 callsubr
          hintmask 001000000100000100001000
          367 -278 -67 callsubr
          -291 377 -67 callsubr
          hintmask 000010000001000001000010
          364 -281 -67 callsubr
          -247 323 -67 callsubr
          hintmask 000000100010000000010001
          257 -203 -67 callsubr
          -136 188 -67 callsubr
          endchar
        </CharString>
        <CharString name="doubledanda">
          37 21 -21 740 -20 hstem
          141 202 109 203 vstem
          141 547 callsubr
          202 740 vlineto
          109 hmoveto
          -740 203 740 vlineto
          endchar
        </CharString>
        <CharString name="dvA">
          189 -29 callgsubr
          43 callsubr
          80 203 hintmask 0000101000100100
          427 callgsubr
          hintmask 0100101001000100
          138 callsubr
          hintmask 0010001001000100
          55 callgsubr
          hintmask 0001001000000100
          219 callgsubr
          hintmask 1000001000010100
          -222 203 60 callgsubr
          -280 -351 -127 vlineto
          54 callsubr
          hintmask 1000010000010100
          337 callgsubr
          hintmask 1000010010000100
          333 callsubr
          hintmask 1000010000100100
          187 hlineto
          hintmask 0000100100101100
          89 callsubr
          endchar
        </CharString>
        <CharString name="dvAA">
          523 -29 callgsubr
          43 callsubr
          80 203 132 204 hintmask 0000101000100110
          427 callgsubr
          hintmask 0100101001000110
          138 callsubr
          hintmask 0010001001000110
          55 callgsubr
          hintmask 0001001000000110
          219 callgsubr
          hintmask 1000001000010110
          -222 203 217 callgsubr
          -615 -351 -127 vlineto
          54 callsubr
          hintmask 1000010000010110
          337 callgsubr
          hintmask 1000010010000110
          333 callsubr
          hintmask 1000010000100110
          187 hlineto
          hintmask 0000100100101110
          89 callsubr
          endchar
        </CharString>
        <CharString name="dvAI">
          -5 19 -74 callgsubr
          224 328 169 109 163 hstemhm
          70 203 -102 493 -327 294 callgsubr
          hintmask 0111101000000000
          332 19 rmoveto
          147 102 80 144 hvcurveto
          hintmask 0111100010000000
          -199 hlineto
          hintmask 1011100010000000
          362 callgsubr
          hintmask 0111100001000000
          122 -51 hlineto
          hintmask 0111100100000000
          482 callgsubr
          hintmask 0111100001000000
          541 callgsubr
          56 vlineto
          hintmask 0111010000000000
          71 169 -83 hlineto
          -127 238 138 callgsubr
          428 callsubr
          hintmask 0111101000000000
          -402 -169 80 hlineto
          1 -305 rlineto
          -145 89 -102 173 vhcurveto
          endchar
        </CharString>
        <CharString name="dvAU">
          523 -29 callgsubr
          42 616 callgsubr
          43 callsubr
          80 203 -103 103 132 204 hintmask 100000101100000101000000
          780 hmoveto
          217 callgsubr
          -89 vlineto
          335 -174 -25 16 -167 hhcurveto
          -60 -126 65 hlineto
          58 41 0 -88 58 hvcurveto
          hintmask 100000101100000011000000
          39 -54 -26 0 -86 hhcurveto
          -56 -125 61 hlineto
          106 -17 0 -51 98 hvcurveto
          hintmask 100000101100010101000000
          -348 -351 -127 hlineto
          54 callsubr
          hintmask 100001001100010101000000
          337 callgsubr
          hintmask 100001001110000101000000
          333 callsubr
          hintmask 100001001100100101000000
          187 hlineto
          hintmask 000010011100101101000000
          89 callsubr
          -49 -163 hlineto
          hintmask 010010101101000101000000
          138 callsubr
          hintmask 001000101101000101000000
          55 callgsubr
          hintmask 000100101100000101000000
          219 callgsubr
          hintmask 100000101100000101000000
          -222 vlineto
          endchar
        </CharString>
        <CharString name="dvAbbreviationsign">
          -193 157 119 105 119 hstem
          57 121 108 122 vstem
          234 500 rmoveto
          -104 -73 -71 -101 -100 73 -71 104 103 71 71 100 101 -71 71 -103 hvcurveto
          -119 vmoveto
          30 22 -22 -31 -31 -22 -21 -30 -32 -24 21 31 31 24 22 32 hvcurveto
          endchar
        </CharString>
        <CharString name="dvAcandra">
          194 -29 callgsubr
          65 149 -149 233 43 callsubr
          -73 174 -21 203 -6 174 hintmask 000010100100100010000000
          427 callgsubr
          hintmask 010010100101000010000000
          138 callsubr
          hintmask 001000100101000010000000
          55 callgsubr
          hintmask 000100100100000010000000
          219 callgsubr
          hintmask 100000100100010010000000
          -222 203 60 callgsubr
          -280 -351 -127 vlineto
          54 callsubr
          hintmask 100001000100010010000000
          337 callgsubr
          hintmask 100001000110000010000000
          333 callsubr
          hintmask 100001000100100010000000
          187 hlineto
          hintmask 000010010100101001000000
          89 callsubr
          689 554 rmoveto
          -174 hlineto
          hintmask 100000101000000001000000
          615 callgsubr
          hintmask 100000100100000100000000
          119 callsubr
          vhcurveto
          hintmask 000010010100101001000000
          400 callsubr
        </CharString>
        <CharString name="dvAnusvara">
          -658 799 227 hstem
          -283 228 vstem
          -55 912 -26 callsubr
        </CharString>
        <CharString name="dvAnusvara.amI">
          -658 799 227 hstem
          26 228 vstem
          254 912 -26 callsubr
        </CharString>
        <CharString name="dvAvagraha">
          -48 37 170 294 171 hstemhm
          45 479 -413 208 -208 423 -218 208 hintmask 11000100
          336 37 rmoveto
          105 83 56 106 hvcurveto
          hintmask 11010000
          184 -205 44 56 vvcurveto
          16 13 2 11 vhcurveto
          hintmask 11001000
          191 171 -243 hlineto
          -107 -73 -55 -102 hvcurveto
          hintmask 11000100
          -181 205 -46 -58 vvcurveto
          -17 -12 -6 -22 vhcurveto
          hintmask 11100000
          -237 -170 hlineto
          endchar
        </CharString>
        <CharString name="dvB">
          -289 38 138 389 callsubr
          hintmask 11101100
          587 288 rmoveto
          128 -86 110 -186 -32 callsubr
          185 87 113 137 vhcurveto
          -266 101 rmoveto
          -92 callsubr
          hintmask 11110000
          271 182 -93 callgsubr
          -603 -18 callgsubr
          332 -395 rmoveto
          hintmask 11101100
          -59 -52 41 65 8 1 8 2 7 hvcurveto
          167 -114 rlineto
          hintmask 11110000
          -9 -16 -20 -6 -23 hhcurveto
          endchar
        </CharString>
        <CharString name="dvBA">
          29 0 408 callsubr
          39 143 213 129 47 169 hstemhm
          42 93 callsubr
          hintmask 01111110
          622 hmoveto
          -43 callsubr
          -709 -169 437 176 callsubr
          -142 -102 -98 -138 597 callgsubr
          hvcurveto
          -85 vlineto
          -96 395 rmoveto
          hintmask 01111101
          -21 callgsubr
          hintmask 01111110
          -7 callsubr
          hintmask 10011110
          -213 vmoveto
          -61 callsubr
          endchar
        </CharString>
        <CharString name="dvBH">
          -99 36 172 97 166 38 240 -173 137 callgsubr
          -190 395 hintmask 11101010
          280 208 -59 callsubr
          vlineto
          hintmask 11101001
          205 166 hlineto
          hintmask 11100110
          -205 25 hlineto
          0 callsubr
          hintmask 11010110
          -51 callgsubr
          -63 -43 vlineto
          hintmask 11101010
          13 callsubr
          endchar
        </CharString>
        <CharString name="dvBHA">
          232 500 callsubr
          97 166 38 74 callgsubr
          98 204 hintmask 1110101011000000
          280 208 -59 callsubr
          98 -305 217 callsubr
          -269 -98 25 vlineto
          hintmask 1111000111000000
          0 callsubr
          hintmask 1110010111000000
          -51 callgsubr
          -63 -43 vlineto
          hintmask 1110101011000000
          13 callsubr
          endchar
        </CharString>
        <CharString name="dvBH_LA">
          820 5 176 -145 172 19 213 callsubr
          -231 74 callgsubr
          78 890 -889 192 callsubr
          307 27 168 27 200 -200 360 -359 306 171 callgsubr
          hintmask 010010001010100101000000
          280 208 -59 callsubr
          81 vlineto
          -1 -13 -1 -14 -14 vvcurveto
          hintmask 100010001010100101000000
          -30 callgsubr
          177 vlineto
          hintmask 100000100010101011000000
          196 callgsubr
          hintmask 100100000010100111000000
          117 callsubr
          hintmask 100000100010100110001000
          -73 callsubr
          hintmask 100010001010100100010000
          -4 -12 1 1 -9 hvcurveto
          -177 vlineto
          -1 15 12 0 7 hhcurveto
          8 callgsubr
          hintmask 100010001010100101000000
          27 callgsubr
          hintmask 100010001010100100100000
          433 callsubr
          hlineto
          hintmask 100010001010110000000000
          -890 -38 callsubr
          hintmask 101000001010100101000000
          530 595 callsubr
          hintmask 100001001010100101000000
          57 -31 -55 37 -90 hhcurveto
          hintmask 100010010001100101000000
          -50 -50 -13 -28 -42 hvcurveto
          -177 25 hlineto
          0 callsubr
          hintmask 100010000101100101000000
          -51 callgsubr
          -63 -43 vlineto
          hintmask 010010001010100101000000
          13 callsubr
          endchar
        </CharString>
        <CharString name="dvBH_NA">
          744 0 491 -455 172 -169 171 95 166 -149 169 18 74 callgsubr
          79 -3 callsubr
          160 75 204 hintmask 0101001010111100
          280 208 -59 callsubr
          82 vlineto
          -2 -13 -1 -13 -14 vvcurveto
          hintmask 0010101010111100
          533 callgsubr
          221 callgsubr
          hintmask 1000001010111100
          -322 492 callsubr
          -813 -169 532 459 callsubr
          hintmask 0001010001111100
          -41 -40 -7 -13 -35 hvcurveto
          -217 25 hlineto
          0 callsubr
          hintmask 0001000101111100
          -51 callgsubr
          -63 -43 vlineto
          hintmask 0101001010111100
          13 callsubr
          hintmask 0010101010111100
          262 -11 92 callsubr
        </CharString>
        <CharString name="dvBH_R">
          -99 -99 324 505 callsubr
          92 162 34 236 347 callsubr
          hstemhm
          42 187 -187 685 -663 199 71 183 -183 393 hintmask 0111010010000000
          151 callsubr
          237 71 rmoveto
          21 208 vlineto
          hintmask 1011010001000000
          -452 -416 505 callgsubr
          234 236 rlineto
          342 vlineto
          hintmask 0111000110000000
          -210 17 hlineto
          150 callgsubr
          hintmask 0110100110000000
          265 callsubr
          -55 -46 vlineto
          hintmask 0111001000000000
          -133 604 callgsubr
          98 -82 143 hvcurveto
          hintmask 0111010010000000
          153 548 callgsubr
          endchar
        </CharString>
        <CharString name="dvBH_RA">
          232 -99 324 -204 -21 59 166 92 162 34 357 callgsubr
          132 194 -183 183 hintmask 0111010101100000
          151 callsubr
          237 71 rmoveto
          21 132 -70 vlineto
          hintmask 1001010101100000
          -376 -346 505 callgsubr
          hintmask 0111010101010000
          167 168 rlineto
          -69 vlineto
          hintmask 0111010101100000
          183 571 78 169 -272 -261 -132 17 hlineto
          hintmask 0111100011100000
          150 callgsubr
          hintmask 0111001011100000
          265 callsubr
          -55 -46 vlineto
          hintmask 0111010101100000
          -133 -113 -64 -147 479 callsubr
        </CharString>
        <CharString name="dvBH_R_YA">
          651 -99 324 -225 280 callgsubr
          59 166 -162 169 85 154 42 357 callgsubr
          82 329 -201 -76 callgsubr
          hintmask 0011010101010110
          151 callsubr
          hintmask 0100010101010110
          626 7 rmoveto
          -76 -40 41 47 -2 hvcurveto
          109 18 31 77 -11 callsubr
          hintmask 0011010101010110
          -389 64 rmoveto
          21 70 vlineto
          3 -39 8 -35 13 -31 rrcurveto
          hintmask 1000010101010110
          -338 -311 505 callgsubr
          hintmask 0010110101011010
          208 203 rlineto
          -27 43 53 -14 63 -49 callsubr
          77 169 -721 -18 callgsubr
          hintmask 0011010101010110
          128 -31 hlineto
          -57 -15 -12 -66 vhcurveto
          -129 25 hlineto
          hintmask 0011011000110110
          150 callgsubr
          hintmask 0011010010110110
          265 callsubr
          -63 -46 vlineto
          hintmask 0011010101010110
          -133 -113 -62 -141 479 callsubr
        </CharString>
        <CharString name="dvBH_VA">
          557 413 callsubr
          -8 74 callgsubr
          74 200 156 200 hintmask 0101001010111000
          280 208 -59 callsubr
          75 vlineto
          -1 -7 0 -7 -7 vvcurveto
          hintmask 0011001010111000
          325 callgsubr
          hintmask 1000101010111000
          152 callsubr
          hintmask 1001010001111000
          -59 -48 -17 -29 -36 hvcurveto
          -153 25 hlineto
          0 callsubr
          hintmask 1001000101111000
          -51 callgsubr
          -63 -43 vlineto
          hintmask 0101001010111000
          13 callsubr
          hintmask 1000101010111000
          353 -74 6 callgsubr
          endchar
        </CharString>
        <CharString name="dvBH_YA">
          651 318 callsubr
          73 166 38 74 callgsubr
          78 329 -201 -76 callgsubr
          hintmask 0110101010101100
          280 208 -59 callsubr
          67 vlineto
          hintmask 0101101010110100
          -148 14 97 -94 161 -49 callsubr
          77 169 -721 -18 callgsubr
          hintmask 0101101010101100
          216 callgsubr
          hintmask 0101110001101100
          0 callsubr
          hintmask 0101100101101100
          -51 callgsubr
          -63 -43 vlineto
          hintmask 0110101010101100
          13 callsubr
          hintmask 1000101010101100
          385 -45 rmoveto
          -76 -40 41 47 -2 hvcurveto
          109 18 31 77 -11 callsubr
          endchar
        </CharString>
        <CharString name="dvB_BA">
          417 0 408 callsubr
          38 138 -137 143 207 137 -131 551 callgsubr
          345 -169 307 callgsubr
          220 93 callsubr
          hintmask 0110100101100000
          321 389 rmoveto
          -92 callsubr
          689 -389 rmoveto
          -43 callsubr
          -1097 -169 825 vlineto
          hintmask 0110010101100000
          176 callsubr
          -66 -57 -21 -37 -43 hvcurveto
          hintmask 0110100111100000
          37 -44 -64 23 -85 hhcurveto
          -32 callsubr
          84 64 24 38 45 hvcurveto
          hintmask 0101100101100000
          -39 43 57 -22 66 hhcurveto
          256 callsubr
          hintmask 0110100111100000
          -493 176 rmoveto
          -95 callsubr
          hintmask 1000001001010000
          397 6 rmoveto
          -61 callsubr
          213 vmoveto
          -21 callgsubr
          -7 callsubr
          endchar
        </CharString>
</ttFont>
